<svg version="1.1" id="Layer_1" xmlns="http://www.w3.org/2000/svg" xmlns:xlink="http://www.w3.org/1999/xlink" x="0px" y="0px"
	 width="100%" viewBox="0 0 406 443" enable-background="new 0 0 406 443" xml:space="preserve">
<path fill="#010108" opacity="1.000000" stroke="none" 
	d="
M259.000000,444.000000 
	C172.666672,444.000000 86.833351,444.000000 1.000023,444.000000 
	C1.000015,296.333374 1.000015,148.666718 1.000008,1.000063 
	C136.333298,1.000042 271.666595,1.000042 406.999908,1.000021 
	C406.999939,148.666611 406.999939,296.333221 406.999969,443.999908 
	C357.833344,444.000000 308.666656,444.000000 259.000000,444.000000 
M151.979614,225.136810 
	C152.697510,226.079773 153.415405,227.022720 154.332748,228.599670 
	C160.693008,236.666000 167.830002,243.818909 177.754471,248.697952 
	C178.175888,248.811707 178.597290,248.925476 179.167099,249.244080 
	C179.167099,249.244080 179.409882,249.173080 179.863098,249.744431 
	C186.220688,251.882446 192.578278,254.020462 199.615005,256.545471 
	C212.506165,259.044037 225.035339,257.564941 237.320419,253.184052 
	C256.892181,246.204697 270.453766,232.764389 279.284027,214.065948 
	C279.284027,214.065948 279.268646,214.250000 279.713043,213.913498 
	C279.785492,213.555557 279.857941,213.197601 280.355103,212.275742 
	C287.045807,193.804932 287.805267,175.363708 280.060822,156.228683 
	C275.444580,146.516739 269.834961,137.552673 260.684082,130.418259 
	C258.012756,128.464447 255.479782,126.278015 252.648071,124.593903 
	C231.472473,112.000046 209.341614,108.976692 185.348679,118.283867 
	C179.267303,121.949921 173.185928,125.615974 166.474686,129.463730 
	C152.895798,141.004883 144.048370,155.285599 140.945740,173.787262 
	C140.679840,175.856094 140.413956,177.924942 140.007553,180.901901 
	C140.050232,184.269516 140.092911,187.637146 140.017624,191.820648 
	C141.639694,197.891281 143.261749,203.961914 144.930618,210.793137 
	C146.927567,214.868713 148.924515,218.944290 151.051193,223.635742 
	C151.334503,223.936951 151.617813,224.238159 151.979614,225.136810 
M361.388550,324.853851 
	C361.882141,323.441528 362.511078,322.060669 362.848053,320.611908 
	C365.781372,308.001068 356.354767,296.621918 344.119995,298.258026 
	C341.124023,298.658630 338.286926,300.247314 334.803772,301.495056 
	C334.803772,295.314636 334.803772,289.342102 334.803772,283.223267 
	C332.109344,283.223267 329.646118,283.223267 327.031799,283.223267 
	C327.031799,300.268433 327.031799,317.135193 327.031799,334.863678 
	C330.323944,334.044220 333.097870,333.353790 336.655060,332.468353 
	C346.083832,337.945496 355.159332,335.670837 361.388550,324.853851 
M60.745335,309.983368 
	C57.945480,317.894318 55.145630,325.805267 52.064552,334.510803 
	C56.054241,333.225525 60.372223,336.903412 62.367527,331.151276 
	C65.162956,323.092438 65.301186,323.140381 73.932526,323.121674 
	C75.428200,323.118408 76.952339,323.300262 78.414024,323.075684 
	C82.237724,322.488251 83.937553,324.040222 84.974548,327.799042 
	C87.041962,335.292908 87.391502,335.276917 95.721329,333.562164 
	C90.713005,319.844391 85.723816,306.174011 80.728371,292.505920 
	C80.329353,291.414185 79.820061,290.358978 79.477058,289.251190 
	C78.280243,285.385956 75.052254,287.054779 72.760971,287.105133 
	C71.268959,287.137909 69.023277,288.403625 68.471642,289.695984 
	C65.734863,296.107605 63.448982,302.711731 60.745335,309.983368 
M194.726730,334.056061 
	C194.621994,324.233612 195.017792,314.368561 194.186310,304.608002 
	C193.810654,300.198456 189.618011,297.511932 184.927719,298.026672 
	C180.195770,298.546021 175.558868,299.931519 170.715912,300.972931 
	C170.715912,295.521759 170.715912,289.431335 170.715912,283.210571 
	C167.935699,283.210571 165.483292,283.210571 162.872925,283.210571 
	C162.872925,300.225250 162.872925,317.072479 162.872925,333.902832 
	C165.803375,333.902832 168.357727,333.902832 171.143326,333.902832 
	C171.143326,327.248291 171.068649,320.939941 171.165268,314.634277 
	C171.253906,308.849670 175.627426,304.105957 180.503220,304.286469 
	C184.830902,304.446686 187.105835,307.698761 187.212860,314.270081 
	C187.318069,320.731201 187.235779,327.195374 187.235779,334.195953 
	C189.658340,334.195953 191.784454,334.195953 194.726730,334.056061 
M223.491241,317.915497 
	C227.743591,317.915497 231.995941,317.915497 236.159592,317.915497 
	C237.231461,307.150848 232.199585,299.433624 223.777603,298.088379 
	C212.784515,296.332458 204.021210,302.442413 201.802521,313.409729 
	C199.919266,322.718933 205.720047,331.968445 215.052078,334.536346 
	C224.881912,337.241302 233.076996,333.399780 235.974411,324.548035 
	C232.536942,323.303955 229.900879,322.094727 226.577759,326.145660 
	C224.951263,328.128418 219.442444,328.046753 216.112900,327.213257 
	C212.399689,326.283691 209.900406,323.000488 210.554779,317.916992 
	C214.612030,317.916992 218.556335,317.916992 223.491241,317.915497 
M293.927673,308.964081 
	C296.704041,304.853943 300.296661,302.621460 305.300964,304.616333 
	C309.013916,306.096436 309.712463,309.164062 309.051361,312.277588 
	C303.090973,313.565979 297.379791,314.514832 291.847168,316.090576 
	C287.736023,317.261536 285.806641,320.650391 285.821594,324.884613 
	C285.836182,329.011230 287.454712,332.361786 291.488342,334.018707 
	C297.902985,336.653687 303.821625,335.748962 309.358826,330.768341 
	C311.738617,336.804535 316.459900,334.917755 321.346222,335.018768 
	C320.964539,332.687195 321.124084,329.523438 320.283203,329.230408 
	C316.314789,327.847504 317.414642,324.825745 317.340973,322.182587 
	C317.234467,318.359253 317.420227,314.525269 317.241302,310.707031 
	C316.928284,304.026031 313.916992,300.137604 308.125305,298.577576 
	C300.598907,296.550293 292.000977,298.676819 289.023560,303.544739 
	C288.174805,304.932373 288.074341,306.777679 287.604309,308.510468 
	C288.720520,308.772644 289.182068,308.945709 289.653442,308.978973 
	C290.813293,309.060822 291.977661,309.078430 293.927673,308.964081 
M150.065140,332.642303 
	C152.201019,329.899475 154.336899,327.156647 156.472778,324.413818 
	C156.048981,323.847900 155.625183,323.281952 155.201385,322.716003 
	C153.001114,323.402527 150.424957,323.577759 148.668915,324.868591 
	C142.678482,329.272156 137.077301,329.464478 133.232178,324.889801 
	C129.233292,320.132172 130.029831,310.714966 134.768036,306.731781 
	C138.876190,303.278259 145.350708,303.808319 147.698883,308.477905 
	C149.718399,312.493896 152.350037,312.375885 155.745087,311.642639 
	C154.414062,299.764282 142.129410,294.146118 131.362595,300.339142 
	C123.028976,305.132599 119.795876,316.773071 124.342674,325.613525 
	C129.211609,335.080353 138.581467,337.861877 150.065140,332.642303 
M277.593445,323.208160 
	C277.593445,309.928619 277.593445,296.649078 277.593445,283.399292 
	C274.626648,283.399292 272.083344,283.399292 269.350952,283.399292 
	C269.350952,297.920074 269.337158,312.061798 269.373627,326.203400 
	C269.377045,327.524872 269.554810,328.884155 269.898743,330.159241 
	C270.892212,333.842407 275.419830,336.254486 280.127106,334.783264 
	C281.779114,334.266968 282.674438,331.329559 283.915283,329.497711 
	C283.179321,329.497864 282.443359,329.498047 281.707367,329.498230 
	C280.340424,327.709564 278.973480,325.920929 277.593445,323.208160 
M118.966629,305.337067 
	C119.293694,303.149017 119.620766,300.960938 119.926086,298.918396 
	C114.076881,296.366058 111.703224,301.297760 108.079887,303.174255 
	C107.601532,301.610687 107.182228,300.240143 106.825157,299.072998 
	C104.365067,299.072998 102.242180,299.072998 100.166489,299.072998 
	C100.166489,310.871338 100.166489,322.427521 100.166489,333.925171 
	C102.938316,333.925171 105.357643,333.925171 107.705185,333.925171 
	C107.845390,333.286377 107.977158,332.963013 107.978310,332.639191 
	C107.994835,327.976624 108.011292,323.313934 107.993225,318.651398 
	C107.958565,309.706451 109.623741,307.596802 118.966629,305.337067 
M263.213226,303.055542 
	C263.140198,301.459412 263.067169,299.863281 263.000488,298.405914 
	C257.134521,296.677185 254.918564,301.581177 251.111389,304.213898 
	C250.959457,302.326538 250.832657,300.751282 250.694595,299.036194 
	C248.130203,299.036194 245.708786,299.036194 243.194229,299.036194 
	C243.194229,310.773499 243.194229,322.229187 243.194229,333.956146 
	C245.776260,333.956146 248.211136,333.956146 251.090515,333.956146 
	C251.090515,328.344666 250.955917,322.886353 251.123978,317.437408 
	C251.342880,310.339386 253.617737,307.754333 260.438507,305.898041 
	C261.474457,305.616150 262.295868,304.546112 263.213226,303.055542 
M184.519257,374.732910 
	C185.476242,374.094940 186.368042,373.075378 187.403809,372.898376 
	C189.562271,372.529633 191.796860,372.606445 194.007614,372.499817 
	C193.520340,366.162140 191.135498,363.307617 187.022186,363.495270 
	C182.885483,363.683960 179.959290,367.430115 180.175522,372.260498 
	C180.391479,377.084381 183.492386,380.220184 188.026459,379.998718 
	C191.217239,379.842865 193.780014,378.858093 193.428268,375.397003 
	C190.341660,375.397003 187.637421,375.397003 184.519257,374.732910 
M239.693359,362.937592 
	C239.693359,368.199524 239.693359,373.461487 239.693359,378.878723 
	C243.312347,379.172791 246.430145,380.031464 249.296951,379.510071 
	C253.116669,378.815430 254.190903,375.451538 254.131424,371.850525 
	C254.028397,365.612274 251.054886,363.450134 244.081894,363.958466 
	C243.013550,361.783295 242.049316,359.820129 241.085098,357.856964 
	C240.620560,359.267120 240.156006,360.677277 239.693359,362.937592 
M280.958435,368.509521 
	C280.959717,366.850769 281.194885,365.149475 280.902710,363.544128 
	C280.541595,361.559753 279.742523,359.655060 279.132690,357.715942 
	C278.453064,359.516235 277.785309,361.321228 277.081360,363.111969 
	C276.973297,363.386810 276.698944,363.596313 276.511475,363.823975 
	C268.267822,364.199890 266.010376,366.240204 266.598389,372.763458 
	C267.148041,378.860992 270.050751,380.133911 280.959473,378.821167 
	C280.959473,375.745544 280.959473,372.614594 280.958435,368.509521 
M222.491547,368.984863 
	C222.400452,370.145630 222.634491,371.464203 222.161194,372.439484 
	C220.254745,376.368042 221.912781,379.808319 226.083771,379.881775 
	C228.947235,379.932220 231.817612,379.589111 234.533615,379.430725 
	C234.346130,376.288666 234.120590,373.215576 233.988464,370.138458 
	C233.760071,364.819397 228.461060,361.446686 223.888824,364.056854 
	C222.778793,364.690552 222.596329,366.949127 222.491547,368.984863 
M123.799263,379.537994 
	C124.707672,378.986511 126.384415,378.449921 126.395477,377.881012 
	C126.452477,374.949402 125.955948,372.012268 125.891693,369.071838 
	C125.802673,364.998352 122.504204,364.223206 119.812302,363.839783 
	C117.194298,363.466858 114.076782,364.065247 113.085800,368.048340 
	C116.363708,368.048340 119.205536,368.048340 122.047371,368.048340 
	C122.054420,368.527374 122.061478,369.006439 122.068527,369.485474 
	C120.215286,369.900513 118.279114,370.102020 116.528725,370.781891 
	C114.058365,371.741364 111.668350,373.592194 113.254143,376.356781 
	C114.241936,378.078857 116.864136,379.113708 118.965645,379.847443 
	C120.121155,380.250854 121.717430,379.391815 123.799263,379.537994 
M175.372009,370.820648 
	C176.362289,362.621490 169.921692,365.192444 165.949097,364.647461 
	C165.548523,362.151764 165.208344,360.032410 164.769455,357.298004 
	C161.694839,360.798798 161.509903,375.876770 164.511581,379.685516 
	C165.080765,377.095428 164.541504,374.306030 165.251587,371.882721 
	C165.818481,369.948059 167.907089,368.459229 169.320267,366.772522 
	C170.258926,368.418182 171.465515,369.971527 172.072113,371.731628 
	C172.935669,374.237366 173.358688,376.894897 173.969910,379.487579 
	C174.434677,376.887329 174.899429,374.287079 175.372009,370.820648 
M292.698639,379.830963 
	C297.959442,379.236572 298.881866,378.348083 298.059540,373.844360 
	C294.911285,376.940704 291.717285,378.736664 288.915039,372.642151 
	C292.661224,372.642151 295.828583,372.642151 298.940826,372.642151 
	C299.222595,366.546906 297.213318,363.666382 293.082611,363.480621 
	C289.506165,363.319763 286.320435,366.274445 285.953217,370.349579 
	C285.539978,374.935883 286.881104,378.552307 292.698639,379.830963 
M152.983109,379.814117 
	C155.683548,379.032318 157.861694,377.914459 157.125000,375.669952 
	C153.905243,375.669952 151.169144,376.299377 149.096191,375.400116 
	C148.084305,374.961121 147.562454,371.437866 148.106262,369.717651 
	C150.087341,363.450989 154.216278,369.289642 157.358292,368.799408 
	C155.832596,363.654144 150.200882,361.629700 147.150131,365.339783 
	C145.310120,367.577393 144.391907,371.396576 144.675354,374.350006 
	C145.036148,378.109528 148.002853,380.349426 152.983109,379.814117 
M311.714844,368.217285 
	C311.061554,369.855438 310.408234,371.493622 309.732147,373.188934 
	C306.131805,370.864838 308.286194,364.442596 301.851929,363.628754 
	C303.803711,368.784271 305.431366,373.095856 307.068817,377.403748 
	C307.901581,379.594666 309.587219,380.784332 310.859772,378.308624 
	C313.140167,373.872131 314.721344,369.076202 316.594757,364.430481 
	C315.967712,364.094604 315.340668,363.758728 314.713623,363.422852 
	C313.789642,364.788452 312.865692,366.154053 311.714844,368.217285 
M212.692886,376.392731 
	C213.839355,379.227692 215.528687,380.482452 217.804886,379.330505 
	C217.211533,375.640228 216.565582,372.870514 216.369125,370.069275 
	C216.148666,366.925751 216.486053,363.742676 216.255646,360.600616 
	C216.181885,359.594757 215.073395,358.664825 214.438324,357.700134 
	C213.809647,358.672180 212.675552,359.624878 212.637527,360.619476 
	C212.447037,365.600616 212.543671,370.592682 212.692886,376.392731 
M205.420013,363.742737 
	C203.572144,363.982117 201.724274,364.221527 199.283722,364.537689 
	C199.283722,368.420349 199.136032,372.356201 199.376419,376.268219 
	C199.445847,377.398132 200.630707,378.459473 201.304214,379.552246 
	C201.784805,378.457306 202.651016,377.370880 202.675461,376.265869 
	C202.756683,372.591980 202.324738,368.860840 206.649551,366.945923 
	C206.892883,366.838165 206.293488,364.827148 205.420013,363.742737 
M131.789520,373.158508 
	C131.992447,375.370209 132.195358,377.581909 132.398285,379.793610 
	C132.983307,379.795929 133.568344,379.798279 134.153366,379.800629 
	C134.409912,378.666412 134.788254,377.544067 134.900543,376.395752 
	C135.261978,372.699646 133.559357,368.093903 139.362579,366.884491 
	C139.683533,366.817566 140.047348,365.342926 139.817215,364.744171 
	C139.625351,364.244965 138.550430,363.738220 137.936234,363.812256 
	C135.970825,364.049225 134.037766,364.554565 131.762222,365.024414 
	C131.762222,367.412109 131.762222,369.870361 131.789520,373.158508 
z"/>
<path fill="#F1F0F0" opacity="1.000000" stroke="none" 
	d="
M361.235565,325.195587 
	C355.159332,335.670837 346.083832,337.945496 336.655060,332.468353 
	C333.097870,333.353790 330.323944,334.044220 327.031799,334.863678 
	C327.031799,317.135193 327.031799,300.268433 327.031799,283.223267 
	C329.646118,283.223267 332.109344,283.223267 334.803772,283.223267 
	C334.803772,289.342102 334.803772,295.314636 334.803772,301.495056 
	C338.286926,300.247314 341.124023,298.658630 344.119995,298.258026 
	C356.354767,296.621918 365.781372,308.001068 362.848053,320.611908 
	C362.511078,322.060669 361.882141,323.441528 361.235565,325.195587 
M354.934967,318.140991 
	C354.976196,308.938782 349.205414,303.198029 342.253418,305.525452 
	C336.963928,307.296326 334.128479,312.009247 334.724304,318.039886 
	C335.300720,323.873444 338.853912,327.870544 343.788055,328.235901 
	C349.297577,328.643921 352.660431,325.811005 354.934967,318.140991 
z"/>
<path fill="#EFEFEF" opacity="1.000000" stroke="none" 
	d="
M60.874786,309.615692 
	C63.448982,302.711731 65.734863,296.107605 68.471642,289.695984 
	C69.023277,288.403625 71.268959,287.137909 72.760971,287.105133 
	C75.052254,287.054779 78.280243,285.385956 79.477058,289.251190 
	C79.820061,290.358978 80.329353,291.414185 80.728371,292.505920 
	C85.723816,306.174011 90.713005,319.844391 95.721329,333.562164 
	C87.391502,335.276917 87.041962,335.292908 84.974548,327.799042 
	C83.937553,324.040222 82.237724,322.488251 78.414024,323.075684 
	C76.952339,323.300262 75.428200,323.118408 73.932526,323.121674 
	C65.301186,323.140381 65.162956,323.092438 62.367527,331.151276 
	C60.372223,336.903412 56.054241,333.225525 52.064552,334.510803 
	C55.145630,325.805267 57.945480,317.894318 60.874786,309.615692 
M67.795303,315.443024 
	C71.946037,315.443024 76.096779,315.443024 80.735016,315.443024 
	C78.547569,308.461304 76.550751,302.087982 74.118866,294.326080 
	C71.667305,301.931976 69.610619,308.312805 67.795303,315.443024 
z"/>
<path fill="#EFEFEF" opacity="1.000000" stroke="none" 
	d="
M194.318665,334.126007 
	C191.784454,334.195953 189.658340,334.195953 187.235779,334.195953 
	C187.235779,327.195374 187.318069,320.731201 187.212860,314.270081 
	C187.105835,307.698761 184.830902,304.446686 180.503220,304.286469 
	C175.627426,304.105957 171.253906,308.849670 171.165268,314.634277 
	C171.068649,320.939941 171.143326,327.248291 171.143326,333.902832 
	C168.357727,333.902832 165.803375,333.902832 162.872925,333.902832 
	C162.872925,317.072479 162.872925,300.225250 162.872925,283.210571 
	C165.483292,283.210571 167.935699,283.210571 170.715912,283.210571 
	C170.715912,289.431335 170.715912,295.521759 170.715912,300.972931 
	C175.558868,299.931519 180.195770,298.546021 184.927719,298.026672 
	C189.618011,297.511932 193.810654,300.198456 194.186310,304.608002 
	C195.017792,314.368561 194.621994,324.233612 194.318665,334.126007 
z"/>
<path fill="#ECECED" opacity="1.000000" stroke="none" 
	d="
M222.995941,317.916260 
	C218.556335,317.916992 214.612030,317.916992 210.554779,317.916992 
	C209.900406,323.000488 212.399689,326.283691 216.112900,327.213257 
	C219.442444,328.046753 224.951263,328.128418 226.577759,326.145660 
	C229.900879,322.094727 232.536942,323.303955 235.974411,324.548035 
	C233.076996,333.399780 224.881912,337.241302 215.052078,334.536346 
	C205.720047,331.968445 199.919266,322.718933 201.802521,313.409729 
	C204.021210,302.442413 212.784515,296.332458 223.777603,298.088379 
	C232.199585,299.433624 237.231461,307.150848 236.159592,317.915497 
	C231.995941,317.915497 227.743591,317.915497 222.995941,317.916260 
M212.659180,307.344757 
	C211.959854,308.703552 211.260529,310.062347 210.455673,311.626160 
	C217.002594,311.626160 222.789383,311.626160 228.706360,311.626160 
	C225.778671,302.952271 220.086349,301.296875 212.659180,307.344757 
z"/>
<path fill="#F1F0F0" opacity="1.000000" stroke="none" 
	d="
M293.533936,309.042969 
	C291.977661,309.078430 290.813293,309.060822 289.653442,308.978973 
	C289.182068,308.945709 288.720520,308.772644 287.604309,308.510468 
	C288.074341,306.777679 288.174805,304.932373 289.023560,303.544739 
	C292.000977,298.676819 300.598907,296.550293 308.125305,298.577576 
	C313.916992,300.137604 316.928284,304.026031 317.241302,310.707031 
	C317.420227,314.525269 317.234467,318.359253 317.340973,322.182587 
	C317.414642,324.825745 316.314789,327.847504 320.283203,329.230408 
	C321.124084,329.523438 320.964539,332.687195 321.346222,335.018768 
	C316.459900,334.917755 311.738617,336.804535 309.358826,330.768341 
	C303.821625,335.748962 297.902985,336.653687 291.488342,334.018707 
	C287.454712,332.361786 285.836182,329.011230 285.821594,324.884613 
	C285.806641,320.650391 287.736023,317.261536 291.847168,316.090576 
	C297.379791,314.514832 303.090973,313.565979 309.051361,312.277588 
	C309.712463,309.164062 309.013916,306.096436 305.300964,304.616333 
	C300.296661,302.621460 296.704041,304.853943 293.533936,309.042969 
M296.425720,329.231445 
	C306.175964,330.965851 310.397430,327.318054 308.445007,318.030212 
	C304.968353,318.710907 301.365875,319.085571 297.984863,320.158234 
	C293.296600,321.645538 292.698639,324.466278 296.425720,329.231445 
z"/>
<path fill="#7547EA" opacity="1.000000" stroke="none" 
	d="
M280.079315,156.964783 
	C287.805267,175.363708 287.045807,193.804932 279.946960,212.467102 
	C279.448761,213.188980 279.358704,213.719498 279.268646,214.250000 
	C279.268646,214.250000 279.284027,214.065948 278.868652,214.084534 
	C277.016602,214.555420 275.067413,214.566559 274.232452,215.536728 
	C270.701416,219.639343 267.716644,224.223618 264.071503,228.210617 
	C262.688843,229.722900 260.064331,230.099747 258.003632,230.661591 
	C258.000214,229.885452 257.999054,229.441864 258.131836,228.691116 
	C271.922150,212.859894 279.161407,195.160217 274.842346,174.346939 
	C273.253967,166.692581 269.520966,159.483246 267.154541,152.014069 
	C271.433594,150.082855 273.832367,151.458908 275.765961,155.147720 
	C276.324921,156.214066 278.594147,156.383926 280.079315,156.964783 
z"/>
<path fill="#7B48E8" opacity="1.000000" stroke="none" 
	d="
M258.005859,230.994141 
	C260.064331,230.099747 262.688843,229.722900 264.071503,228.210617 
	C267.716644,224.223618 270.701416,219.639343 274.232452,215.536728 
	C275.067413,214.566559 277.016602,214.555420 278.885986,214.175247 
	C270.453766,232.764389 256.892181,246.204697 237.320419,253.184052 
	C225.035339,257.564941 212.506165,259.044037 199.323959,255.996552 
	C201.025146,252.998932 203.017380,250.550232 205.348114,248.069092 
	C206.117599,248.164536 206.548569,248.292389 207.072632,248.713501 
	C208.138229,248.925552 209.110733,248.844376 210.502823,248.669983 
	C213.952271,248.428787 216.982147,248.280792 220.118042,248.272156 
	C220.481949,248.276855 220.739822,248.142212 221.352478,247.863983 
	C231.617096,245.909119 240.659515,241.994537 249.049316,236.820663 
	C249.414932,237.559097 249.761932,237.929214 250.108932,238.299332 
	C249.988495,237.599228 249.868057,236.899124 249.852936,236.092316 
	C249.958237,235.985596 250.228363,235.855423 250.612122,236.173157 
	C255.606354,237.570633 257.541199,235.235886 257.995850,231.004623 
	C257.999054,231.001083 258.005859,230.994141 258.005859,230.994141 
z"/>
<path fill="#6656EB" opacity="1.000000" stroke="none" 
	d="
M186.062347,118.254066 
	C209.341614,108.976692 231.472473,112.000046 252.648071,124.593903 
	C255.479782,126.278015 258.012756,128.464447 260.540619,130.841370 
	C257.912415,132.902847 255.427658,134.541229 252.619690,136.055206 
	C239.875671,126.374130 225.965393,120.920357 210.171936,122.127525 
	C203.134155,122.665459 196.218002,124.794586 189.213303,125.834747 
	C190.137131,123.218819 191.094299,120.969681 192.132187,118.530876 
	C189.489685,118.410370 187.776016,118.332214 186.062347,118.254066 
z"/>
<path fill="#EFEFEF" opacity="1.000000" stroke="none" 
	d="
M149.768646,332.857849 
	C138.581467,337.861877 129.211609,335.080353 124.342674,325.613525 
	C119.795876,316.773071 123.028976,305.132599 131.362595,300.339142 
	C142.129410,294.146118 154.414062,299.764282 155.745087,311.642639 
	C152.350037,312.375885 149.718399,312.493896 147.698883,308.477905 
	C145.350708,303.808319 138.876190,303.278259 134.768036,306.731781 
	C130.029831,310.714966 129.233292,320.132172 133.232178,324.889801 
	C137.077301,329.464478 142.678482,329.272156 148.668915,324.868591 
	C150.424957,323.577759 153.001114,323.402527 155.201385,322.716003 
	C155.625183,323.281952 156.048981,323.847900 156.472778,324.413818 
	C154.336899,327.156647 152.201019,329.899475 149.768646,332.857849 
z"/>
<path fill="#6137EC" opacity="1.000000" stroke="none" 
	d="
M140.135590,191.004761 
	C140.092911,187.637146 140.050232,184.269516 140.429276,180.354462 
	C140.978226,177.557587 141.105469,175.308182 141.232697,173.058762 
	C144.048370,155.285599 152.895798,141.004883 167.032562,129.617737 
	C168.423355,132.937042 169.256256,136.102341 169.999176,139.516998 
	C169.368484,140.204010 168.827728,140.641663 168.009125,141.186523 
	C167.511993,141.614746 167.292725,141.935776 166.977264,142.570435 
	C158.449112,151.677933 153.337311,162.250717 149.981689,174.079758 
	C149.768784,175.157852 149.830688,176.067856 149.934525,177.334686 
	C149.613098,178.798004 149.249725,179.904526 148.691818,181.128067 
	C148.259720,181.445709 148.090714,181.693146 147.624313,182.074432 
	C145.954636,185.999268 144.650894,189.837067 143.341797,193.690659 
	C142.013474,192.577896 141.074539,191.791321 140.135590,191.004761 
z"/>
<path fill="#E3E3E4" opacity="1.000000" stroke="none" 
	d="
M277.599976,323.670227 
	C278.973480,325.920929 280.340424,327.709564 281.707367,329.498230 
	C282.443359,329.498047 283.179321,329.497864 283.915283,329.497711 
	C282.674438,331.329559 281.779114,334.266968 280.127106,334.783264 
	C275.419830,336.254486 270.892212,333.842407 269.898743,330.159241 
	C269.554810,328.884155 269.377045,327.524872 269.373627,326.203400 
	C269.337158,312.061798 269.350952,297.920074 269.350952,283.399292 
	C272.083344,283.399292 274.626648,283.399292 277.593445,283.399292 
	C277.593445,296.649078 277.593445,309.928619 277.599976,323.670227 
z"/>
<path fill="#F3F3F3" opacity="1.000000" stroke="none" 
	d="
M118.615891,305.525085 
	C109.623741,307.596802 107.958565,309.706451 107.993225,318.651398 
	C108.011292,323.313934 107.994835,327.976624 107.978310,332.639191 
	C107.977158,332.963013 107.845390,333.286377 107.705185,333.925171 
	C105.357643,333.925171 102.938316,333.925171 100.166489,333.925171 
	C100.166489,322.427521 100.166489,310.871338 100.166489,299.072998 
	C102.242180,299.072998 104.365067,299.072998 106.825157,299.072998 
	C107.182228,300.240143 107.601532,301.610687 108.079887,303.174255 
	C111.703224,301.297760 114.076881,296.366058 119.926086,298.918396 
	C119.620766,300.960938 119.293694,303.149017 118.615891,305.525085 
z"/>
<path fill="#ECECED" opacity="1.000000" stroke="none" 
	d="
M263.214874,303.448059 
	C262.295868,304.546112 261.474457,305.616150 260.438507,305.898041 
	C253.617737,307.754333 251.342880,310.339386 251.123978,317.437408 
	C250.955917,322.886353 251.090515,328.344666 251.090515,333.956146 
	C248.211136,333.956146 245.776260,333.956146 243.194229,333.956146 
	C243.194229,322.229187 243.194229,310.773499 243.194229,299.036194 
	C245.708786,299.036194 248.130203,299.036194 250.694595,299.036194 
	C250.832657,300.751282 250.959457,302.326538 251.111389,304.213898 
	C254.918564,301.581177 257.134521,296.677185 263.000488,298.405914 
	C263.067169,299.863281 263.140198,301.459412 263.214874,303.448059 
z"/>
<path fill="#674FE7" opacity="1.000000" stroke="none" 
	d="
M177.348358,248.171448 
	C167.830002,243.818909 160.693008,236.666000 154.608063,228.301300 
	C158.983429,229.427063 161.945419,228.929642 162.443390,223.823578 
	C170.422485,232.573486 179.549744,239.227844 189.951050,244.445282 
	C187.817642,249.626602 184.129196,250.633759 179.409882,249.173080 
	C179.409882,249.173080 179.167099,249.244080 178.880341,248.891083 
	C178.178497,248.415863 177.763428,248.293655 177.348358,248.171448 
z"/>
<path fill="#674FE7" opacity="1.000000" stroke="none" 
	d="
M252.942917,136.179611 
	C255.427658,134.541229 257.912415,132.902847 260.724060,131.121490 
	C269.834961,137.552673 275.444580,146.516739 280.070068,156.596741 
	C278.594147,156.383926 276.324921,156.214066 275.765961,155.147720 
	C273.832367,151.458908 271.433594,150.082855 266.884644,151.828857 
	C263.152832,147.787903 260.079254,143.875275 256.879883,139.757141 
	C256.542664,139.297729 256.280548,139.117661 255.685623,138.902832 
	C254.583344,137.922684 253.763138,137.051147 252.942917,136.179611 
z"/>
<path fill="#6048ED" opacity="1.000000" stroke="none" 
	d="
M170.089142,139.267654 
	C169.256256,136.102341 168.423355,132.937042 167.347504,129.526886 
	C173.185928,125.615974 179.267303,121.949921 185.705505,118.268967 
	C187.776016,118.332214 189.489685,118.410370 192.132187,118.530876 
	C191.094299,120.969681 190.137131,123.218819 189.182129,125.820335 
	C189.184296,126.172714 189.226196,126.118645 188.966034,126.186874 
	C188.465454,126.511818 188.225037,126.768532 187.898575,127.116554 
	C187.812515,127.207855 187.593781,127.084869 187.276398,127.156174 
	C186.644577,127.510345 186.330154,127.793213 185.799759,128.330261 
	C180.418900,132.145508 175.254028,135.706573 170.089142,139.267654 
z"/>
<path fill="#663DEF" opacity="1.000000" stroke="none" 
	d="
M140.076599,191.412704 
	C141.074539,191.791321 142.013474,192.577896 143.341797,193.690659 
	C144.650894,189.837067 145.954636,185.999268 147.629730,182.081207 
	C148.001083,182.000931 148.010986,182.010986 148.008667,182.462387 
	C148.987534,188.607513 149.968719,194.301254 151.001099,200.201843 
	C151.052277,200.408722 151.051254,200.834946 151.128632,201.071838 
	C151.366180,201.614502 151.601929,201.841934 152.035309,202.259857 
	C152.139893,202.919617 152.122437,203.310577 152.095276,204.031006 
	C152.389023,204.908981 152.692444,205.457458 153.078049,206.177933 
	C153.160233,206.349930 153.123840,206.729431 153.085754,207.118530 
	C151.238113,212.364777 149.659027,212.853165 144.883820,210.032547 
	C143.261749,203.961914 141.639694,197.891281 140.076599,191.412704 
z"/>
<path fill="#6048ED" opacity="1.000000" stroke="none" 
	d="
M144.907227,210.412842 
	C149.659027,212.853165 151.238113,212.364777 153.375854,207.324188 
	C155.491653,211.026108 157.279282,214.911469 159.078659,219.133301 
	C159.510269,219.923813 159.930115,220.377853 160.277832,220.820618 
	C160.205673,220.809341 160.287643,220.688446 160.233154,221.024170 
	C160.754471,221.910049 161.330276,222.460205 162.006958,223.173264 
	C162.107803,223.336166 162.116104,223.719254 162.116104,223.719254 
	C161.945419,228.929642 158.983429,229.427063 154.508331,227.984299 
	C153.415405,227.022720 152.697510,226.079773 151.874039,224.526917 
	C151.486130,223.617966 151.203781,223.318924 150.921448,223.019867 
	C148.924515,218.944290 146.927567,214.868713 144.907227,210.412842 
z"/>
<path fill="#633BB7" opacity="1.000000" stroke="none" 
	d="
M184.726227,375.064941 
	C187.637421,375.397003 190.341660,375.397003 193.428268,375.397003 
	C193.780014,378.858093 191.217239,379.842865 188.026459,379.998718 
	C183.492386,380.220184 180.391479,377.084381 180.175522,372.260498 
	C179.959290,367.430115 182.885483,363.683960 187.022186,363.495270 
	C191.135498,363.307617 193.520340,366.162140 194.007614,372.499817 
	C191.796860,372.606445 189.562271,372.529633 187.403809,372.898376 
	C186.368042,373.075378 185.476242,374.094940 184.726227,375.064941 
z"/>
<path fill="#734CCF" opacity="1.000000" stroke="none" 
	d="
M239.692413,362.512512 
	C240.156006,360.677277 240.620560,359.267120 241.085098,357.856964 
	C242.049316,359.820129 243.013550,361.783295 244.081894,363.958466 
	C251.054886,363.450134 254.028397,365.612274 254.131424,371.850525 
	C254.190903,375.451538 253.116669,378.815430 249.296951,379.510071 
	C246.430145,380.031464 243.312347,379.172791 239.693359,378.878723 
	C239.693359,373.461487 239.693359,368.199524 239.692413,362.512512 
M249.233429,367.530334 
	C247.503479,367.693726 244.374969,367.582581 244.279907,368.066864 
	C243.808792,370.467133 243.859528,373.083679 244.369446,375.487610 
	C244.507858,376.140167 247.795578,376.983521 248.076706,376.598694 
	C249.314362,374.904755 250.161148,372.846375 250.759232,370.805664 
	C250.976456,370.064514 250.105896,369.004486 249.233429,367.530334 
z"/>
<path fill="#734CCF" opacity="1.000000" stroke="none" 
	d="
M280.958954,368.996582 
	C280.959473,372.614594 280.959473,375.745544 280.959473,378.821167 
	C270.050751,380.133911 267.148041,378.860992 266.598389,372.763458 
	C266.010376,366.240204 268.267822,364.199890 276.511475,363.823975 
	C276.698944,363.596313 276.973297,363.386810 277.081360,363.111969 
	C277.785309,361.321228 278.453064,359.516235 279.132690,357.715942 
	C279.742523,359.655060 280.541595,361.559753 280.902710,363.544128 
	C281.194885,365.149475 280.959717,366.850769 280.958954,368.996582 
M277.751343,369.987610 
	C276.058411,368.851318 274.365509,367.715027 272.672607,366.578735 
	C271.749939,368.670319 270.209137,370.740173 270.134674,372.861542 
	C270.089508,374.149231 272.310974,375.516449 273.514160,376.847961 
	C274.925079,375.308929 276.373169,373.801117 277.714264,372.203430 
	C277.968689,371.900299 277.798889,371.241119 277.751343,369.987610 
z"/>
<path fill="#6B47C3" opacity="1.000000" stroke="none" 
	d="
M222.239441,368.722717 
	C222.596329,366.949127 222.778793,364.690552 223.888824,364.056854 
	C228.461060,361.446686 233.760071,364.819397 233.988464,370.138458 
	C234.120590,373.215576 234.346130,376.288666 234.533615,379.430725 
	C231.817612,379.589111 228.947235,379.932220 226.083771,379.881775 
	C221.912781,379.808319 220.254745,376.368042 222.161194,372.439484 
	C222.634491,371.464203 222.400452,370.145630 222.239441,368.722717 
M224.562775,374.505005 
	C225.254364,375.635437 225.945938,376.765900 226.637527,377.896332 
	C228.001541,376.889313 229.490005,376.001434 230.645081,374.794464 
	C230.947083,374.478912 230.212372,373.171173 229.953766,372.319122 
	C228.827896,372.918304 227.720673,373.557556 226.566086,374.095032 
	C226.159714,374.284210 225.637299,374.224060 224.562775,374.505005 
z"/>
<path fill="#6E49DE" opacity="1.000000" stroke="none" 
	d="
M179.636490,249.458755 
	C184.129196,250.633759 187.817642,249.626602 190.339508,244.441772 
	C195.518616,245.430420 200.264114,246.765976 205.009598,248.101517 
	C203.017380,250.550232 201.025146,252.998932 198.984390,255.803055 
	C192.578278,254.020462 186.220688,251.882446 179.636490,249.458755 
z"/>
<path fill="#7144CC" opacity="1.000000" stroke="none" 
	d="
M123.457115,379.320007 
	C121.717430,379.391815 120.121155,380.250854 118.965645,379.847443 
	C116.864136,379.113708 114.241936,378.078857 113.254143,376.356781 
	C111.668350,373.592194 114.058365,371.741364 116.528725,370.781891 
	C118.279114,370.102020 120.215286,369.900513 122.068527,369.485474 
	C122.061478,369.006439 122.054420,368.527374 122.047371,368.048340 
	C119.205536,368.048340 116.363708,368.048340 113.085800,368.048340 
	C114.076782,364.065247 117.194298,363.466858 119.812302,363.839783 
	C122.504204,364.223206 125.802673,364.998352 125.891693,369.071838 
	C125.955948,372.012268 126.452477,374.949402 126.395477,377.881012 
	C126.384415,378.449921 124.707672,378.986511 123.457115,379.320007 
M122.581841,374.042206 
	C121.375114,373.649048 120.152718,372.917358 118.966736,372.972290 
	C118.055534,373.014496 116.884285,373.875092 116.417648,374.703491 
	C116.131348,375.211761 116.753281,376.852692 117.327492,377.081573 
	C118.226479,377.439911 119.545753,377.289642 120.469765,376.873016 
	C121.260582,376.516449 121.746346,375.483368 122.581841,374.042206 
z"/>
<path fill="#7B48E8" opacity="1.000000" stroke="none" 
	d="
M175.368103,371.253723 
	C174.899429,374.287079 174.434677,376.887329 173.969910,379.487579 
	C173.358688,376.894897 172.935669,374.237366 172.072113,371.731628 
	C171.465515,369.971527 170.258926,368.418182 169.320267,366.772522 
	C167.907089,368.459229 165.818481,369.948059 165.251587,371.882721 
	C164.541504,374.306030 165.080765,377.095428 164.511581,379.685516 
	C161.509903,375.876770 161.694839,360.798798 164.769455,357.298004 
	C165.208344,360.032410 165.548523,362.151764 165.949097,364.647461 
	C169.921692,365.192444 176.362289,362.621490 175.368103,371.253723 
z"/>
<path fill="#734CCF" opacity="1.000000" stroke="none" 
	d="
M292.303955,379.797272 
	C286.881104,378.552307 285.539978,374.935883 285.953217,370.349579 
	C286.320435,366.274445 289.506165,363.319763 293.082611,363.480621 
	C297.213318,363.666382 299.222595,366.546906 298.940826,372.642151 
	C295.828583,372.642151 292.661224,372.642151 288.915039,372.642151 
	C291.717285,378.736664 294.911285,376.940704 298.059540,373.844360 
	C298.881866,378.348083 297.959442,379.236572 292.303955,379.797272 
M295.916748,368.816986 
	C292.531097,365.173584 291.157867,365.414703 289.378082,370.830811 
	C291.834656,370.355164 293.898590,369.955536 295.916748,368.816986 
z"/>
<path fill="#6B47C3" opacity="1.000000" stroke="none" 
	d="
M152.602402,379.863342 
	C148.002853,380.349426 145.036148,378.109528 144.675354,374.350006 
	C144.391907,371.396576 145.310120,367.577393 147.150131,365.339783 
	C150.200882,361.629700 155.832596,363.654144 157.358292,368.799408 
	C154.216278,369.289642 150.087341,363.450989 148.106262,369.717651 
	C147.562454,371.437866 148.084305,374.961121 149.096191,375.400116 
	C151.169144,376.299377 153.905243,375.669952 157.125000,375.669952 
	C157.861694,377.914459 155.683548,379.032318 152.602402,379.863342 
z"/>
<path fill="#6B47C3" opacity="1.000000" stroke="none" 
	d="
M311.828278,367.868469 
	C312.865692,366.154053 313.789642,364.788452 314.713623,363.422852 
	C315.340668,363.758728 315.967712,364.094604 316.594757,364.430481 
	C314.721344,369.076202 313.140167,373.872131 310.859772,378.308624 
	C309.587219,380.784332 307.901581,379.594666 307.068817,377.403748 
	C305.431366,373.095856 303.803711,368.784271 301.851929,363.628754 
	C308.286194,364.442596 306.131805,370.864838 309.732147,373.188934 
	C310.408234,371.493622 311.061554,369.855438 311.828278,367.868469 
z"/>
<path fill="#7144CC" opacity="1.000000" stroke="none" 
	d="
M212.616119,375.986816 
	C212.543671,370.592682 212.447037,365.600616 212.637527,360.619476 
	C212.675552,359.624878 213.809647,358.672180 214.438324,357.700134 
	C215.073395,358.664825 216.181885,359.594757 216.255646,360.600616 
	C216.486053,363.742676 216.148666,366.925751 216.369125,370.069275 
	C216.565582,372.870514 217.211533,375.640228 217.804886,379.330505 
	C215.528687,380.482452 213.839355,379.227692 212.616119,375.986816 
z"/>
<path fill="#633BB7" opacity="1.000000" stroke="none" 
	d="
M205.753174,363.722351 
	C206.293488,364.827148 206.892883,366.838165 206.649551,366.945923 
	C202.324738,368.860840 202.756683,372.591980 202.675461,376.265869 
	C202.651016,377.370880 201.784805,378.457306 201.304214,379.552246 
	C200.630707,378.459473 199.445847,377.398132 199.376419,376.268219 
	C199.136032,372.356201 199.283722,368.420349 199.283722,364.537689 
	C201.724274,364.221527 203.572144,363.982117 205.753174,363.722351 
z"/>
<path fill="#7144CC" opacity="1.000000" stroke="none" 
	d="
M131.775879,372.743561 
	C131.762222,369.870361 131.762222,367.412109 131.762222,365.024414 
	C134.037766,364.554565 135.970825,364.049225 137.936234,363.812256 
	C138.550430,363.738220 139.625351,364.244965 139.817215,364.744171 
	C140.047348,365.342926 139.683533,366.817566 139.362579,366.884491 
	C133.559357,368.093903 135.261978,372.699646 134.900543,376.395752 
	C134.788254,377.544067 134.409912,378.666412 134.153366,379.800629 
	C133.568344,379.798279 132.983307,379.795929 132.398285,379.793610 
	C132.195358,377.581909 131.992447,375.370209 131.775879,372.743561 
z"/>
<path fill="#663DEF" opacity="1.000000" stroke="none" 
	d="
M141.089218,173.423004 
	C141.105469,175.308182 140.978226,177.557587 140.499542,179.900391 
	C140.413956,177.924942 140.679840,175.856094 141.089218,173.423004 
z"/>
<path fill="#7B48E8" opacity="1.000000" stroke="none" 
	d="
M279.490845,214.081757 
	C279.358704,213.719498 279.448761,213.188980 279.734619,212.749069 
	C279.857941,213.197601 279.785492,213.555557 279.490845,214.081757 
z"/>
<path fill="#674FE7" opacity="1.000000" stroke="none" 
	d="
M150.986328,223.327805 
	C151.203781,223.318924 151.486130,223.617966 151.834808,224.228180 
	C151.617813,224.238159 151.334503,223.936951 150.986328,223.327805 
z"/>
<path fill="#6E49DE" opacity="1.000000" stroke="none" 
	d="
M177.551422,248.434692 
	C177.763428,248.293655 178.178497,248.415863 178.806137,248.788666 
	C178.597290,248.925476 178.175888,248.811707 177.551422,248.434692 
z"/>
<path fill="#0A0A0F" opacity="1.000000" stroke="none" 
	d="
M354.874512,318.544250 
	C352.660431,325.811005 349.297577,328.643921 343.788055,328.235901 
	C338.853912,327.870544 335.300720,323.873444 334.724304,318.039886 
	C334.128479,312.009247 336.963928,307.296326 342.253418,305.525452 
	C349.205414,303.198029 354.976196,308.938782 354.874512,318.544250 
z"/>
<path fill="#1B1B1F" opacity="1.000000" stroke="none" 
	d="
M67.674622,315.068329 
	C69.610619,308.312805 71.667305,301.931976 74.118866,294.326080 
	C76.550751,302.087982 78.547569,308.461304 80.735016,315.443024 
	C76.096779,315.443024 71.946037,315.443024 67.674622,315.068329 
z"/>
<path fill="#131317" opacity="1.000000" stroke="none" 
	d="
M212.911270,307.032410 
	C220.086349,301.296875 225.778671,302.952271 228.706360,311.626160 
	C222.789383,311.626160 217.002594,311.626160 210.455673,311.626160 
	C211.260529,310.062347 211.959854,308.703552 212.911270,307.032410 
z"/>
<path fill="#131317" opacity="1.000000" stroke="none" 
	d="
M296.059937,329.054321 
	C292.698639,324.466278 293.296600,321.645538 297.984863,320.158234 
	C301.365875,319.085571 304.968353,318.710907 308.445007,318.030212 
	C310.397430,327.318054 306.175964,330.965851 296.059937,329.054321 
z"/>
<path fill="#02030B" opacity="1.000000" stroke="none" 
	d="
M205.348114,248.069092 
	C200.264114,246.765976 195.518616,245.430420 190.384674,244.098389 
	C179.549744,239.227844 170.422485,232.573486 162.443390,223.823578 
	C162.116104,223.719254 162.107803,223.336166 162.007721,222.868622 
	C161.367630,221.830215 160.827637,221.259338 160.287643,220.688446 
	C160.287643,220.688446 160.205673,220.809341 160.223465,220.513367 
	C159.849823,219.743866 159.458374,219.270355 159.066925,218.796829 
	C157.279282,214.911469 155.491653,211.026108 153.413940,206.935089 
	C153.123840,206.729431 153.160233,206.349930 153.126892,205.848541 
	C152.764008,204.798615 152.434494,204.250076 152.104980,203.701523 
	C152.122437,203.310577 152.139893,202.919617 152.027466,201.993256 
	C151.615463,201.250198 151.333359,201.042572 151.051254,200.834946 
	C151.051254,200.834946 151.052277,200.408722 151.105667,199.782715 
	C150.431015,193.441010 149.702972,187.725296 148.990814,181.756592 
	C148.966568,181.339401 148.926453,181.175217 148.886353,181.011047 
	C149.249725,179.904526 149.613098,178.798004 150.065994,176.967834 
	C150.189163,175.466690 150.222824,174.689194 150.256485,173.911682 
	C153.337311,162.250717 158.449112,151.677933 167.244202,142.448669 
	C167.833908,141.701950 168.060455,141.390640 168.286987,141.079315 
	C168.827728,140.641663 169.368484,140.204010 169.999176,139.516998 
	C175.254028,135.706573 180.418900,132.145508 186.120972,128.271271 
	C186.970032,127.667038 187.281906,127.375954 187.593781,127.084869 
	C187.593781,127.084869 187.812515,127.207855 188.178284,127.086861 
	C188.771439,126.683464 188.998825,126.401054 189.226196,126.118652 
	C189.226196,126.118645 189.184296,126.172714 189.215469,126.187119 
	C196.218002,124.794586 203.134155,122.665459 210.171936,122.127525 
	C225.965393,120.920357 239.875671,126.374130 252.619690,136.055206 
	C253.763138,137.051147 254.583344,137.922684 255.786240,139.131012 
	C256.371887,139.761230 256.650818,139.926178 257.005707,139.962662 
	C260.079254,143.875275 263.152832,147.787903 266.496277,151.885727 
	C269.520966,159.483246 273.253967,166.692581 274.842346,174.346939 
	C279.161407,195.160217 271.922150,212.859894 257.864532,228.801193 
	C256.853516,229.948822 256.243744,230.679214 255.420456,231.436829 
	C253.547394,232.927826 251.887878,234.391617 250.228363,235.855408 
	C250.228363,235.855423 249.958237,235.985596 249.733002,236.085236 
	C249.306839,236.198090 249.147827,236.287247 249.030701,236.452347 
	C240.659515,241.994537 231.617096,245.909119 221.096680,247.821243 
	C220.328049,247.992310 220.170029,248.062561 220.012009,248.132797 
	C216.982147,248.280792 213.952271,248.428787 210.217743,248.523331 
	C208.668564,248.453339 207.824051,248.436798 206.979538,248.420258 
	C206.548569,248.292389 206.117599,248.164536 205.348114,248.069092 
M237.752075,213.813507 
	C238.121582,214.369720 238.491089,214.925934 238.927811,216.168839 
	C241.621292,221.958450 246.057495,224.127655 252.796295,222.915100 
	C252.464523,214.304153 247.085495,207.933731 243.023422,200.375977 
	C242.688828,199.908676 242.354248,199.441360 241.977707,198.385452 
	C241.637314,197.924698 241.296921,197.463928 240.882874,196.366409 
	C240.285690,195.497711 239.688507,194.628998 238.960938,193.004791 
	C238.726746,191.394058 238.492554,189.783325 239.128891,188.390732 
	C243.001770,188.508728 246.874634,188.626724 250.835114,189.479874 
	C251.052032,192.252518 252.281555,194.186081 255.261780,192.974350 
	C259.541016,191.234451 263.632446,189.032593 268.331970,186.774277 
	C264.116180,184.371597 260.912415,182.266922 257.464050,180.700653 
	C255.796387,179.943192 252.096191,179.709412 251.985641,180.066055 
	C250.245483,185.679596 245.406311,183.046234 241.166199,183.915070 
	C239.115662,183.931000 237.065109,183.946945 234.588638,183.428177 
	C231.459641,178.140472 228.330643,172.852783 225.107117,166.878860 
	C221.090851,159.956940 217.074585,153.035019 213.222839,145.472168 
	C212.064667,143.028534 210.906509,140.584915 209.257339,137.105270 
	C206.341461,141.626709 203.890320,145.095184 201.877197,148.801559 
	C201.419662,149.643967 202.479584,151.310593 202.934921,153.298584 
	C202.869171,155.451447 203.412643,157.862732 202.628662,159.710922 
	C199.752914,166.490265 196.435989,173.082458 193.212082,179.899597 
	C203.362823,181.354370 203.350571,181.348145 207.552719,173.087067 
	C208.776932,170.680359 210.092926,168.320312 211.608322,165.487473 
	C213.240677,167.921295 214.337250,169.556274 215.613754,171.914886 
	C221.392105,182.628250 227.170456,193.341614 233.002594,204.008041 
	C233.002594,204.008041 232.937424,204.036163 232.967209,204.589462 
	C233.221710,204.836838 233.476227,205.084213 233.762314,205.176346 
	C233.762314,205.176346 233.608719,205.215164 233.655472,205.830139 
	C234.003616,206.315048 234.351746,206.799957 234.743652,207.166718 
	C234.743652,207.166718 234.621063,207.195847 234.654724,207.814880 
	C234.994461,208.307053 235.334198,208.799210 235.722656,209.175812 
	C235.722656,209.175812 235.606506,209.223083 235.670227,209.833267 
	C236.031662,210.304535 236.393112,210.775803 236.797928,211.140457 
	C236.797928,211.140457 236.683884,211.155960 236.722672,211.775604 
	C237.069000,212.264267 237.415329,212.752945 237.811081,213.130493 
	C237.811081,213.130493 237.689575,213.135529 237.752075,213.813507 
M185.161270,183.999359 
	C182.830780,183.589783 179.160980,183.957748 178.395660,182.639481 
	C174.549805,176.015121 168.388367,176.679291 160.822189,175.715851 
	C166.772308,182.194702 165.287994,188.000183 162.257370,194.309875 
	C167.302475,193.794800 172.346710,193.680649 175.940445,191.339737 
	C178.876877,189.426926 181.376373,188.847687 184.505844,188.857468 
	C195.930679,188.893204 207.355698,188.871597 218.780640,188.871597 
	C218.967804,188.401993 219.154953,187.932404 219.342102,187.462799 
	C218.523682,186.433182 217.705261,185.403549 216.088104,184.052338 
	C214.080307,184.110077 212.072510,184.167801 209.135941,184.038330 
	C201.753113,184.090195 194.370300,184.142044 186.503174,184.019882 
	C186.340424,184.074097 186.177673,184.128326 185.161270,183.999359 
M183.240433,198.667816 
	C179.827896,205.889023 176.283661,213.053314 173.116165,220.380447 
	C172.497696,221.811111 172.815170,224.182724 173.631821,225.573898 
	C174.911926,227.754532 176.984619,229.469940 179.234955,231.947586 
	C185.231323,218.656326 190.857635,206.185318 196.710236,193.212738 
	C191.016083,193.116791 185.546707,190.914215 183.240433,198.667816 
z"/>
<path fill="#7B48E8" opacity="1.000000" stroke="none" 
	d="
M255.634003,231.409607 
	C256.243744,230.679214 256.853516,229.948822 257.730591,229.108353 
	C257.999054,229.441864 258.000214,229.885452 258.003632,230.661591 
	C258.005859,230.994141 257.999054,231.001083 257.405121,231.098373 
	C256.418793,231.266983 256.026398,231.338287 255.634003,231.409607 
z"/>
<path fill="#7547EA" opacity="1.000000" stroke="none" 
	d="
M255.420471,231.436829 
	C256.026398,231.338287 256.418793,231.266983 257.401917,231.101913 
	C257.541199,235.235886 255.606354,237.570633 250.612122,236.173157 
	C251.887878,234.391617 253.547394,232.927826 255.420471,231.436829 
z"/>
<path fill="#6E49DE" opacity="1.000000" stroke="none" 
	d="
M207.072632,248.713501 
	C207.824051,248.436798 208.668564,248.453339 209.798157,248.616547 
	C209.110733,248.844376 208.138229,248.925552 207.072632,248.713501 
z"/>
<path fill="#7547EA" opacity="1.000000" stroke="none" 
	d="
M249.049316,236.820663 
	C249.147827,236.287247 249.306839,236.198090 249.627686,236.191956 
	C249.868057,236.899124 249.988495,237.599228 250.108932,238.299332 
	C249.761932,237.929214 249.414932,237.559097 249.049316,236.820663 
z"/>
<path fill="#6E49DE" opacity="1.000000" stroke="none" 
	d="
M220.118042,248.272156 
	C220.170029,248.062561 220.328049,247.992310 220.741867,247.964813 
	C220.739822,248.142212 220.481949,248.276855 220.118042,248.272156 
z"/>
<path fill="#663DEF" opacity="1.000000" stroke="none" 
	d="
M149.981689,174.079758 
	C150.222824,174.689194 150.189163,175.466690 150.024048,176.611038 
	C149.830688,176.067856 149.768784,175.157852 149.981689,174.079758 
z"/>
<path fill="#6048ED" opacity="1.000000" stroke="none" 
	d="
M168.009125,141.186523 
	C168.060455,141.390640 167.833908,141.701950 167.340424,142.135040 
	C167.292725,141.935776 167.511993,141.614746 168.009125,141.186523 
z"/>
<path fill="#663DEF" opacity="1.000000" stroke="none" 
	d="
M148.691818,181.128067 
	C148.926453,181.175217 148.966568,181.339401 148.749817,181.755615 
	C148.492950,182.007660 148.010986,182.010986 148.010986,182.010986 
	C148.010986,182.010986 148.001083,182.000931 147.995667,181.994171 
	C148.090714,181.693146 148.259720,181.445709 148.691818,181.128067 
z"/>
<path fill="#6656EB" opacity="1.000000" stroke="none" 
	d="
M256.879883,139.757141 
	C256.650818,139.926178 256.371887,139.761230 256.068298,139.239624 
	C256.280548,139.117661 256.542664,139.297729 256.879883,139.757141 
z"/>
<path fill="#6656EB" opacity="1.000000" stroke="none" 
	d="
M188.966034,126.186874 
	C188.998825,126.401054 188.771439,126.683464 188.264343,126.995560 
	C188.225037,126.768532 188.465454,126.511818 188.966034,126.186874 
z"/>
<path fill="#6656EB" opacity="1.000000" stroke="none" 
	d="
M187.276398,127.156174 
	C187.281906,127.375954 186.970032,127.667038 186.336945,128.017105 
	C186.330154,127.793213 186.644577,127.510345 187.276398,127.156174 
z"/>
<path fill="#6048ED" opacity="1.000000" stroke="none" 
	d="
M148.008667,182.462387 
	C148.010986,182.010986 148.492950,182.007660 148.733948,182.008636 
	C149.702972,187.725296 150.431015,193.441010 151.054489,199.575836 
	C149.968719,194.301254 148.987534,188.607513 148.008667,182.462387 
z"/>
<path fill="#6048ED" opacity="1.000000" stroke="none" 
	d="
M152.095276,204.031006 
	C152.434494,204.250076 152.764008,204.798615 153.044708,205.676544 
	C152.692444,205.457458 152.389023,204.908981 152.095276,204.031006 
z"/>
<path fill="#6048ED" opacity="1.000000" stroke="none" 
	d="
M151.128632,201.071838 
	C151.333359,201.042572 151.615463,201.250198 151.905426,201.724426 
	C151.601929,201.841934 151.366180,201.614502 151.128632,201.071838 
z"/>
<path fill="#674FE7" opacity="1.000000" stroke="none" 
	d="
M160.233154,221.024170 
	C160.827637,221.259338 161.367630,221.830215 161.906860,222.705719 
	C161.330276,222.460205 160.754471,221.910049 160.233154,221.024170 
z"/>
<path fill="#674FE7" opacity="1.000000" stroke="none" 
	d="
M159.078674,219.133301 
	C159.458374,219.270355 159.849823,219.743866 160.295624,220.524658 
	C159.930115,220.377853 159.510269,219.923813 159.078674,219.133301 
z"/>
<path fill="#131317" opacity="1.000000" stroke="none" 
	d="
M249.482544,367.810150 
	C250.105896,369.004486 250.976456,370.064514 250.759232,370.805664 
	C250.161148,372.846375 249.314362,374.904755 248.076706,376.598694 
	C247.795578,376.983521 244.507858,376.140167 244.369446,375.487610 
	C243.859528,373.083679 243.808792,370.467133 244.279907,368.066864 
	C244.374969,367.582581 247.503479,367.693726 249.482544,367.810150 
z"/>
<path fill="#0A0A0F" opacity="1.000000" stroke="none" 
	d="
M277.788086,370.366913 
	C277.798889,371.241119 277.968689,371.900299 277.714264,372.203430 
	C276.373169,373.801117 274.925079,375.308929 273.514160,376.847961 
	C272.310974,375.516449 270.089508,374.149231 270.134674,372.861542 
	C270.209137,370.740173 271.749939,368.670319 272.672607,366.578735 
	C274.365509,367.715027 276.058411,368.851318 277.788086,370.366913 
z"/>
<path fill="#633BB7" opacity="1.000000" stroke="none" 
	d="
M224.865326,374.391357 
	C225.637299,374.224060 226.159714,374.284210 226.566086,374.095032 
	C227.720673,373.557556 228.827896,372.918304 229.953766,372.319122 
	C230.212372,373.171173 230.947083,374.478912 230.645081,374.794464 
	C229.490005,376.001434 228.001541,376.889313 226.637527,377.896332 
	C225.945938,376.765900 225.254364,375.635437 224.865326,374.391357 
z"/>
<path fill="#1B1B1F" opacity="1.000000" stroke="none" 
	d="
M122.474434,374.395844 
	C121.746346,375.483368 121.260582,376.516449 120.469765,376.873016 
	C119.545753,377.289642 118.226479,377.439911 117.327492,377.081573 
	C116.753281,376.852692 116.131348,375.211761 116.417648,374.703491 
	C116.884285,373.875092 118.055534,373.014496 118.966736,372.972290 
	C120.152718,372.917358 121.375114,373.649048 122.474434,374.395844 
z"/>
<path fill="#1B1B1F" opacity="1.000000" stroke="none" 
	d="
M295.939636,369.186462 
	C293.898590,369.955536 291.834656,370.355164 289.378082,370.830811 
	C291.157867,365.414703 292.531097,365.173584 295.939636,369.186462 
z"/>
<path fill="#33BDE4" opacity="1.000000" stroke="none" 
	d="
M215.433823,171.191238 
	C214.337250,169.556274 213.240677,167.921295 211.608322,165.487473 
	C210.092926,168.320312 208.776932,170.680359 207.552719,173.087067 
	C203.350571,181.348145 203.362823,181.354370 193.212082,179.899597 
	C196.435989,173.082458 199.752914,166.490265 202.628662,159.710922 
	C203.412643,157.862732 202.869171,155.451447 202.932373,152.509552 
	C203.996384,145.679565 210.049164,148.645142 213.058319,146.113098 
	C217.074585,153.035019 221.090851,159.956940 224.922272,167.553284 
	C221.636230,169.215561 218.535034,170.203400 215.433823,171.191238 
z"/>
<path fill="#40ACE6" opacity="1.000000" stroke="none" 
	d="
M216.886841,184.373917 
	C217.705261,185.403549 218.523682,186.433182 219.342102,187.462799 
	C219.154953,187.932404 218.967804,188.401993 218.780640,188.871597 
	C207.355698,188.871597 195.930679,188.893204 184.505844,188.857468 
	C181.376373,188.847687 178.876877,189.426926 175.940445,191.339737 
	C172.346710,193.680649 167.302475,193.794800 162.257370,194.309875 
	C165.287994,188.000183 166.772308,182.194702 160.822189,175.715851 
	C168.388367,176.679291 174.549805,176.015121 178.395660,182.639481 
	C179.160980,183.957748 182.830780,183.589783 185.679672,184.229370 
	C186.198074,184.459381 186.648483,184.532349 186.648483,184.532349 
	C186.648483,184.532349 186.987473,184.193893 186.987473,184.193893 
	C194.370300,184.142044 201.753113,184.090195 209.878479,184.355164 
	C212.709610,184.572632 214.798233,184.473282 216.886841,184.373917 
z"/>
<path fill="#34BCDE" opacity="1.000000" stroke="none" 
	d="
M183.414856,198.330841 
	C185.546707,190.914215 191.016083,193.116791 196.710236,193.212738 
	C190.857635,206.185318 185.231323,218.656326 179.234955,231.947586 
	C176.984619,229.469940 174.911926,227.754532 173.631821,225.573898 
	C172.815170,224.182724 172.497696,221.811111 173.116165,220.380447 
	C176.283661,213.053314 179.827896,205.889023 183.414856,198.330841 
z"/>
<path fill="#21D8DC" opacity="1.000000" stroke="none" 
	d="
M240.956512,197.003174 
	C241.296921,197.463928 241.637314,197.924698 242.015106,198.980896 
	C242.387222,200.040100 242.721939,200.503860 243.056641,200.967636 
	C247.085495,207.933731 252.464523,214.304153 252.796295,222.915100 
	C246.057495,224.127655 241.621292,221.958450 238.905243,215.460068 
	C238.484985,214.212708 238.087280,213.674118 237.689575,213.135529 
	C237.689575,213.135529 237.811081,213.130493 237.827820,212.851456 
	C237.457657,212.100266 237.070770,211.628113 236.683868,211.155960 
	C236.683884,211.155960 236.797928,211.140457 236.817612,210.855621 
	C236.427032,210.121567 236.016769,209.672333 235.606506,209.223083 
	C235.606506,209.223083 235.722656,209.175812 235.765045,208.893921 
	C235.411987,208.139969 235.016525,207.667908 234.621063,207.195847 
	C234.621063,207.195847 234.743652,207.166718 234.780640,206.885208 
	C234.414658,206.140854 234.011688,205.678009 233.608719,205.215164 
	C233.608719,205.215164 233.762314,205.176346 233.730759,204.978394 
	C233.445282,204.532364 233.191345,204.284256 232.937424,204.036163 
	C232.937424,204.036163 233.002594,204.008041 232.993256,203.631409 
	C232.257584,198.760040 231.531281,194.265305 230.830643,189.929535 
	C233.042923,189.117950 234.522247,188.575256 236.378708,188.045319 
	C237.256699,188.096252 237.757523,188.134430 238.258362,188.172592 
	C238.492554,189.783325 238.726746,191.394058 239.004364,193.749435 
	C239.684036,195.330444 240.320282,196.166809 240.956512,197.003174 
z"/>
<path fill="#25D1DD" opacity="1.000000" stroke="none" 
	d="
M236.001556,188.032562 
	C234.522247,188.575256 233.042923,189.117950 230.830643,189.929535 
	C231.531281,194.265305 232.257584,198.760040 232.966354,203.654877 
	C227.170456,193.341614 221.392105,182.628250 215.523788,171.553070 
	C218.535034,170.203400 221.636230,169.215561 224.969543,167.896408 
	C228.330643,172.852783 231.459641,178.140472 234.799973,184.050171 
	C235.341385,185.792297 235.671463,186.912415 236.001556,188.032562 
z"/>
<path fill="#479ADD" opacity="1.000000" stroke="none" 
	d="
M242.031219,184.091187 
	C245.406311,183.046234 250.245483,185.679596 251.985641,180.066055 
	C252.096191,179.709412 255.796387,179.943192 257.464050,180.700653 
	C260.912415,182.266922 264.116180,184.371597 268.331970,186.774277 
	C263.632446,189.032593 259.541016,191.234451 255.261780,192.974350 
	C252.281555,194.186081 251.052032,192.252518 250.849060,188.659637 
	C249.754715,186.898605 248.784531,185.604126 247.504120,185.104279 
	C245.806686,184.441605 243.866867,184.399796 242.031219,184.091187 
z"/>
<path fill="#40ACE6" opacity="1.000000" stroke="none" 
	d="
M213.140579,145.792633 
	C210.049164,148.645142 203.996384,145.679565 202.885452,152.159180 
	C202.479584,151.310593 201.419662,149.643967 201.877197,148.801559 
	C203.890320,145.095184 206.341461,141.626709 209.257339,137.105270 
	C210.906509,140.584915 212.064667,143.028534 213.140579,145.792633 
z"/>
<path fill="#33BDE4" opacity="1.000000" stroke="none" 
	d="
M241.598709,184.003128 
	C243.866867,184.399796 245.806686,184.441605 247.504120,185.104279 
	C248.784531,185.604126 249.754715,186.898605 250.805252,188.292053 
	C246.874634,188.626724 243.001770,188.508728 238.693634,188.281662 
	C237.757523,188.134430 237.256699,188.096252 236.378708,188.045319 
	C235.671463,186.912415 235.341385,185.792297 235.012939,184.317535 
	C237.065109,183.946945 239.115662,183.931000 241.598709,184.003128 
z"/>
<path fill="#479ADD" opacity="1.000000" stroke="none" 
	d="
M216.487473,184.213135 
	C214.798233,184.473282 212.709610,184.572632 210.342865,184.448761 
	C212.072510,184.167801 214.080307,184.110077 216.487473,184.213135 
z"/>
<path fill="#25D1DD" opacity="1.000000" stroke="none" 
	d="
M240.919693,196.684784 
	C240.320282,196.166809 239.684036,195.330444 239.069565,194.127197 
	C239.688507,194.628998 240.285690,195.497711 240.919693,196.684784 
z"/>
<path fill="#25D1DD" opacity="1.000000" stroke="none" 
	d="
M234.637894,207.505371 
	C235.016525,207.667908 235.411987,208.139969 235.740692,208.951691 
	C235.334198,208.799210 234.994461,208.307053 234.637894,207.505371 
z"/>
<path fill="#25D1DD" opacity="1.000000" stroke="none" 
	d="
M233.632095,205.522644 
	C234.011688,205.678009 234.414658,206.140854 234.758759,206.944290 
	C234.351746,206.799957 234.003616,206.315048 233.632095,205.522644 
z"/>
<path fill="#25D1DD" opacity="1.000000" stroke="none" 
	d="
M235.638367,209.528183 
	C236.016769,209.672333 236.427032,210.121567 236.795929,210.908936 
	C236.393112,210.775803 236.031662,210.304535 235.638367,209.528183 
z"/>
<path fill="#25D1DD" opacity="1.000000" stroke="none" 
	d="
M243.040039,200.671814 
	C242.721939,200.503860 242.387222,200.040100 242.036072,199.275208 
	C242.354248,199.441360 242.688828,199.908676 243.040039,200.671814 
z"/>
<path fill="#25D1DD" opacity="1.000000" stroke="none" 
	d="
M236.703278,211.465790 
	C237.070770,211.628113 237.457657,212.100266 237.803101,212.907013 
	C237.415329,212.752945 237.069000,212.264267 236.703278,211.465790 
z"/>
<path fill="#25D1DD" opacity="1.000000" stroke="none" 
	d="
M237.720825,213.474518 
	C238.087280,213.674118 238.484985,214.212708 238.871643,215.116730 
	C238.491089,214.925934 238.121582,214.369720 237.720825,213.474518 
z"/>
<path fill="#25D1DD" opacity="1.000000" stroke="none" 
	d="
M232.952316,204.312805 
	C233.191345,204.284256 233.445282,204.532364 233.714966,205.056030 
	C233.476227,205.084213 233.221710,204.836838 232.952316,204.312805 
z"/>
<path fill="#479ADD" opacity="1.000000" stroke="none" 
	d="
M186.745331,184.106888 
	C186.987473,184.193893 186.648483,184.532349 186.648483,184.532349 
	C186.648483,184.532349 186.198074,184.459381 186.106506,184.320953 
	C186.177673,184.128326 186.340424,184.074097 186.745331,184.106888 
z"/>
</svg>