<svg version="1.1" id="Layer_1" xmlns="http://www.w3.org/2000/svg" xmlns:xlink="http://www.w3.org/1999/xlink" x="0px" y="0px"
	 width="100%" viewBox="0 0 168 160" enable-background="new 0 0 168 160" xml:space="preserve">
<path fill="#010109" opacity="1.000000" stroke="none" 
	d="
M169.000000,59.000000 
	C169.000000,93.333336 169.000000,127.166664 169.000000,161.000000 
	C113.000000,161.000000 57.000000,161.000000 1.000000,161.000000 
	C1.000000,107.666664 1.000000,54.333332 1.000000,1.000000 
	C57.000000,1.000000 113.000000,1.000000 169.000000,1.000000 
	C169.000000,20.166666 169.000000,39.333332 169.000000,59.000000 
M131.109253,21.307638 
	C130.756424,21.155386 130.403580,21.003136 129.757492,20.365290 
	C129.215668,20.226898 128.673828,20.088507 127.917633,19.451056 
	C127.615799,19.333370 127.313965,19.215685 126.596161,18.968338 
	C126.596161,18.968338 126.161530,18.937620 125.847328,18.296539 
	C121.718735,16.267265 117.751709,13.763520 113.432892,12.292873 
	C96.905853,6.665073 80.310768,5.980080 63.890820,12.743063 
	C63.890820,12.743063 63.920860,12.671979 63.171230,12.745249 
	C61.586479,13.461174 60.001724,14.177099 58.172600,14.792333 
	C58.172600,14.792333 58.011848,15.002130 57.354118,15.074442 
	C57.037254,15.369198 56.720387,15.663954 55.852093,15.952263 
	C55.242199,16.338245 54.632301,16.724228 53.336700,17.201870 
	C49.219284,20.127356 45.101871,23.052839 40.383316,26.269583 
	C27.745934,37.862549 19.521011,51.858990 16.832378,69.820122 
	C16.871759,76.545151 16.911140,83.270187 16.890697,90.842079 
	C18.595333,96.558632 20.299969,102.275177 22.029531,108.730896 
	C23.660534,111.828186 25.291536,114.925468 27.067318,118.666451 
	C27.368177,118.976730 27.669035,119.287018 28.014702,120.185036 
	C28.720842,121.112267 29.426985,122.039490 30.343294,123.597298 
	C36.702095,131.616241 43.806927,138.759293 53.700134,143.684631 
	C54.144855,143.803894 54.589577,143.923172 55.179031,144.209534 
	C55.179031,144.209534 55.351147,144.070816 55.756065,144.648331 
	C56.193462,144.801285 56.630863,144.954239 57.140232,145.271866 
	C57.140232,145.271866 57.309685,145.211975 57.828850,145.772537 
	C62.892029,147.435196 67.955208,149.097855 73.756424,151.095078 
	C115.202629,159.962646 156.258575,130.660522 160.960876,88.267876 
	C160.962662,87.511337 160.964432,86.754807 161.235809,85.231438 
	C161.164413,81.151024 161.093002,77.070618 161.100586,72.122002 
	C159.423981,65.405739 157.747391,58.689484 156.084427,51.396164 
	C155.841492,50.894176 155.598557,50.392189 155.221405,49.252903 
	C154.852081,48.737396 154.482758,48.221886 154.004150,47.026798 
	C150.705276,42.340496 147.406387,37.654198 143.868256,32.335999 
	C140.299164,29.199768 136.730087,26.063536 132.839127,22.381355 
	C132.271271,22.111027 131.703400,21.840700 131.123291,21.825483 
	C131.123291,21.825483 131.378647,21.830811 131.109253,21.307638 
z"/>
<path fill="#7A47E7" opacity="1.000000" stroke="none" 
	d="
M160.759735,88.999748 
	C156.258575,130.660522 115.202629,159.962646 73.415077,150.582825 
	C75.389977,147.700287 77.706223,145.330017 80.441940,142.933899 
	C85.911179,142.983215 90.960953,143.058395 96.130722,143.214783 
	C96.559883,143.371002 96.808205,143.275085 97.353546,142.867767 
	C100.923447,141.886002 104.187065,141.203049 107.338890,140.176758 
	C123.228966,135.002686 135.026260,124.693390 144.113937,111.014664 
	C146.076950,112.859772 147.263596,112.788116 148.451965,110.446198 
	C149.300171,108.774620 150.909119,107.499733 152.113174,105.995461 
	C153.742172,103.960258 155.705811,102.065430 156.808395,99.766289 
	C158.453918,96.334938 159.473724,92.603508 160.759735,88.999748 
z"/>
<path fill="#7448EA" opacity="1.000000" stroke="none" 
	d="
M160.860306,88.633812 
	C159.473724,92.603508 158.453918,96.334938 156.808395,99.766289 
	C155.705811,102.065430 153.742172,103.960258 152.113174,105.995461 
	C150.909119,107.499733 149.300171,108.774620 148.451965,110.446198 
	C147.263596,112.788116 146.076950,112.859772 144.144043,110.746384 
	C144.276718,109.812279 144.596710,109.392746 145.123062,108.719749 
	C145.527679,108.077530 145.725922,107.688782 145.918854,106.956497 
	C151.283676,95.905296 152.899475,84.638847 151.573685,72.745361 
	C150.539627,63.468639 147.252060,55.102364 143.170776,46.991432 
	C147.593430,45.390327 150.640549,45.833485 152.223129,50.557606 
	C152.494659,51.368168 154.738205,51.518108 156.070786,51.973225 
	C157.747391,58.689484 159.423981,65.405739 160.839859,72.899704 
	C160.708160,77.784363 160.837189,81.891312 160.966217,85.998268 
	C160.964432,86.754807 160.962662,87.511337 160.860306,88.633812 
z"/>
<path fill="#6657EB" opacity="1.000000" stroke="none" 
	d="
M63.831413,12.693681 
	C80.310768,5.980080 96.905853,6.665073 113.432892,12.292873 
	C117.751709,13.763520 121.718735,16.267265 125.600212,18.636299 
	C121.887825,19.177132 119.061836,20.150951 118.518250,24.255360 
	C114.953979,22.834007 111.807976,21.342285 108.549828,20.159479 
	C95.389481,15.381866 82.184731,16.370756 69.158989,19.767206 
	C70.479958,17.325613 71.629921,15.182752 73.239975,12.182555 
	C69.203979,12.401813 66.517700,12.547747 63.831413,12.693681 
z"/>
<path fill="#6137ED" opacity="1.000000" stroke="none" 
	d="
M17.099098,69.016335 
	C19.521011,51.858990 27.745934,37.862549 40.957447,26.344700 
	C43.050278,29.036980 44.568981,31.654144 45.998306,34.520718 
	C45.369156,35.207031 44.829384,35.643936 44.054909,36.242325 
	C43.571537,36.689064 43.322861,36.974327 42.967430,37.570122 
	C41.164513,39.923229 39.271439,41.834641 37.807774,44.032074 
	C32.667210,51.749702 27.081633,59.289371 25.910931,69.226837 
	C25.460085,70.316490 25.228626,71.157791 24.656513,71.936646 
	C21.918186,70.901596 18.330778,72.933334 17.099098,69.016335 
z"/>
<path fill="#674FE7" opacity="1.000000" stroke="none" 
	d="
M53.274399,143.128403 
	C43.806927,138.759293 36.702095,131.616241 30.606678,123.316559 
	C34.928017,124.341843 37.785984,123.642868 38.432663,118.815628 
	C46.420685,127.566101 55.535507,134.244476 65.914856,139.439499 
	C64.175903,143.443939 61.319588,145.232056 57.309685,145.211975 
	C57.309685,145.211975 57.140232,145.271866 56.844818,144.974213 
	C56.149982,144.474655 55.750565,144.272736 55.351143,144.070816 
	C55.351147,144.070816 55.179031,144.209534 54.839684,143.927032 
	C54.091690,143.472488 53.683044,143.300446 53.274399,143.128403 
z"/>
<path fill="#6639F1" opacity="1.000000" stroke="none" 
	d="
M16.965738,69.418228 
	C18.330778,72.933334 21.918186,70.901596 24.621944,72.355316 
	C24.800547,77.938156 24.915091,83.061287 24.466558,88.134628 
	C24.127268,91.972366 23.069059,95.746529 22.330793,99.548988 
	C21.724083,99.497208 21.117371,99.445435 20.510660,99.393661 
	C19.323948,96.260841 18.137236,93.128029 16.950521,89.995216 
	C16.911140,83.270187 16.871759,76.545151 16.965738,69.418228 
z"/>
<path fill="#6853EB" opacity="1.000000" stroke="none" 
	d="
M118.884964,24.326992 
	C119.061836,20.150951 121.887825,19.177132 125.757309,18.956841 
	C126.161530,18.937620 126.596161,18.968338 126.971344,19.199780 
	C127.585304,19.639091 127.847122,19.812057 128.132004,19.950115 
	C128.673828,20.088507 129.215668,20.226898 130.092148,20.811441 
	C130.744080,21.448664 131.061371,21.639736 131.378647,21.830809 
	C131.378647,21.830811 131.123291,21.825483 131.310150,21.963217 
	C132.051666,22.376402 132.606339,22.651852 133.160995,22.927303 
	C136.730087,26.063536 140.299164,29.199768 143.581223,32.651005 
	C139.777100,32.675282 135.666550,30.556644 133.711365,35.825443 
	C128.573273,31.888334 123.729118,28.107664 118.884964,24.326992 
z"/>
<path fill="#6B4EEC" opacity="1.000000" stroke="none" 
	d="
M134.005295,35.981884 
	C135.666550,30.556644 139.777100,32.675282 143.700851,32.966953 
	C147.406387,37.654198 150.705276,42.340496 154.117935,47.687153 
	C154.606369,48.861740 154.981003,49.375969 155.355637,49.890198 
	C155.598557,50.392189 155.841492,50.894176 156.077606,51.684692 
	C154.738205,51.518108 152.494659,51.368168 152.223129,50.557606 
	C150.640549,45.833485 147.593430,45.390327 142.903702,46.803585 
	C140.486542,44.160431 138.725922,41.623108 136.886642,38.792068 
	C136.223297,37.993507 135.638596,37.488659 134.803711,36.909046 
	C134.370773,36.550148 134.188034,36.266018 134.005295,35.981884 
z"/>
<path fill="#6548E9" opacity="1.000000" stroke="none" 
	d="
M38.106754,118.704651 
	C37.785984,123.642868 34.928017,124.341843 30.501593,123.001266 
	C29.426985,122.039490 28.720842,121.112267 27.849453,119.606750 
	C27.430317,118.693230 27.176430,118.357994 26.922543,118.022758 
	C25.291536,114.925468 23.660534,111.828186 22.426243,108.361633 
	C26.562685,108.269875 29.793707,107.818451 30.186378,103.277809 
	C31.953724,106.967407 33.511543,110.378944 35.140656,114.104858 
	C35.621719,114.899796 36.031487,115.380356 36.315998,115.858849 
	C36.190739,115.856773 36.202740,115.606506 36.303825,115.868698 
	C36.625587,116.429703 36.846264,116.728523 37.220348,117.227951 
	C37.618092,117.853920 37.862423,118.279289 38.106754,118.704651 
z"/>
<path fill="#6240E6" opacity="1.000000" stroke="none" 
	d="
M29.976851,102.999748 
	C29.793707,107.818451 26.562685,108.269875 22.413780,107.992050 
	C20.299969,102.275177 18.595333,96.558632 16.920609,90.418648 
	C18.137236,93.128029 19.323948,96.260841 20.510660,99.393661 
	C21.117371,99.445435 21.724083,99.497208 22.330793,99.548988 
	C23.069059,95.746529 24.127268,91.972366 24.466558,88.134628 
	C24.915091,83.061287 24.800547,77.938156 24.962597,72.417755 
	C25.228626,71.157791 25.460085,70.316490 26.009209,69.556168 
	C24.305998,81.112213 26.340553,92.143600 29.976851,102.999748 
z"/>
<path fill="#614EEE" opacity="1.000000" stroke="none" 
	d="
M63.861115,12.718372 
	C66.517700,12.547747 69.203979,12.401813 73.239975,12.182555 
	C71.629921,15.182752 70.479958,17.325613 69.090424,19.856867 
	C68.850861,20.245258 68.665115,20.116577 68.299339,20.157196 
	C67.293922,20.529116 66.654274,20.860416 66.036316,21.130142 
	C66.057999,21.068567 66.180168,21.114632 65.879166,21.149277 
	C65.052689,21.460497 64.527206,21.737070 63.769447,22.260614 
	C61.034744,23.713606 58.532330,24.919628 56.021248,25.716776 
	C55.349190,22.575338 54.685799,19.842773 54.022408,17.110210 
	C54.632301,16.724228 55.242199,16.338245 56.414513,15.825546 
	C57.321903,15.466597 57.666878,15.234363 58.011848,15.002130 
	C58.011848,15.002130 58.172600,14.792333 58.698307,14.841919 
	C60.789627,14.151662 62.355244,13.411819 63.920860,12.671978 
	C63.920860,12.671979 63.890820,12.743063 63.861115,12.718372 
z"/>
<path fill="#6043ED" opacity="1.000000" stroke="none" 
	d="
M53.679554,17.156040 
	C54.685799,19.842773 55.349190,22.575338 55.894154,26.025848 
	C52.546379,29.252964 49.317028,31.762136 46.087681,34.271309 
	C44.568981,31.654144 43.050278,29.036980 41.258018,26.199070 
	C45.101871,23.052839 49.219284,20.127356 53.679554,17.156040 
z"/>
<path fill="#6E49DF" opacity="1.000000" stroke="none" 
	d="
M57.569267,145.492249 
	C61.319588,145.232056 64.175903,143.443939 66.297150,139.442307 
	C71.182236,140.393127 75.602356,141.676437 80.022476,142.959747 
	C77.706223,145.330017 75.389977,147.700287 73.046059,150.415527 
	C67.955208,149.097855 62.892029,147.435196 57.569267,145.492249 
z"/>
<path fill="#7A47E7" opacity="1.000000" stroke="none" 
	d="
M161.101013,85.614853 
	C160.837189,81.891312 160.708160,77.784363 160.800369,73.333801 
	C161.093002,77.070618 161.164413,81.151024 161.101013,85.614853 
z"/>
<path fill="#6657EB" opacity="1.000000" stroke="none" 
	d="
M63.546043,12.708612 
	C62.355244,13.411819 60.789627,14.151662 58.820496,14.892265 
	C60.001724,14.177099 61.586479,13.461174 63.546043,12.708612 
z"/>
<path fill="#6657EB" opacity="1.000000" stroke="none" 
	d="
M133.000061,22.654327 
	C132.606339,22.651852 132.051666,22.376402 131.316284,21.835663 
	C131.703400,21.840700 132.271271,22.111027 133.000061,22.654327 
z"/>
<path fill="#7448EA" opacity="1.000000" stroke="none" 
	d="
M155.288513,49.571548 
	C154.981003,49.375969 154.606369,48.861740 154.172577,48.026939 
	C154.482758,48.221886 154.852081,48.737396 155.288513,49.571548 
z"/>
<path fill="#6E49DF" opacity="1.000000" stroke="none" 
	d="
M53.487267,143.406525 
	C53.683044,143.300446 54.091690,143.472488 54.767315,143.843475 
	C54.589577,143.923172 54.144855,143.803894 53.487267,143.406525 
z"/>
<path fill="#6657EB" opacity="1.000000" stroke="none" 
	d="
M57.682983,15.038286 
	C57.666878,15.234363 57.321903,15.466597 56.690224,15.828770 
	C56.720387,15.663954 57.037254,15.369198 57.682983,15.038286 
z"/>
<path fill="#674FE7" opacity="1.000000" stroke="none" 
	d="
M26.994930,118.344604 
	C27.176430,118.357994 27.430317,118.693230 27.827049,119.312881 
	C27.669035,119.287018 27.368177,118.976730 26.994930,118.344604 
z"/>
<path fill="#6E49DF" opacity="1.000000" stroke="none" 
	d="
M55.553604,144.359573 
	C55.750565,144.272736 56.149982,144.474655 56.808830,144.891876 
	C56.630863,144.954239 56.193462,144.801285 55.553604,144.359573 
z"/>
<path fill="#6657EB" opacity="1.000000" stroke="none" 
	d="
M128.024811,19.700586 
	C127.847122,19.812057 127.585304,19.639091 127.179337,19.264610 
	C127.313965,19.215685 127.615799,19.333370 128.024811,19.700586 
z"/>
<path fill="#6657EB" opacity="1.000000" stroke="none" 
	d="
M131.243958,21.569221 
	C131.061371,21.639736 130.744080,21.448664 130.238770,21.054239 
	C130.403580,21.003136 130.756424,21.155386 131.243958,21.569221 
z"/>
<path fill="#02030B" opacity="1.000000" stroke="none" 
	d="
M80.441940,142.933899 
	C75.602356,141.676437 71.182236,140.393127 66.379822,139.106995 
	C55.535507,134.244476 46.420685,127.566101 38.432663,118.815628 
	C37.862423,118.279289 37.618092,117.853920 37.235672,116.918808 
	C36.799297,116.141533 36.501019,115.874023 36.202740,115.606506 
	C36.202740,115.606506 36.190739,115.856773 36.237488,115.545898 
	C35.879280,114.753510 35.474323,114.271996 35.069366,113.790482 
	C33.511543,110.378944 31.953724,106.967407 30.186378,103.277809 
	C26.340553,92.143600 24.305998,81.112213 26.228594,69.307816 
	C27.081633,59.289371 32.667210,51.749702 37.807774,44.032074 
	C39.271439,41.834641 41.164513,39.923229 43.235840,37.449585 
	C43.837212,36.705956 44.063412,36.393398 44.289612,36.080841 
	C44.829384,35.643936 45.369156,35.207031 45.998306,34.520718 
	C49.317028,31.762136 52.546379,29.252964 55.902817,26.434719 
	C58.532330,24.919628 61.034744,23.713606 64.077759,22.254580 
	C65.138962,21.705927 65.659569,21.410278 66.180168,21.114632 
	C66.180168,21.114632 66.057999,21.068567 66.406532,21.102623 
	C67.391747,20.796646 68.028435,20.456612 68.665115,20.116577 
	C68.665115,20.116577 68.850861,20.245258 68.919418,20.155598 
	C82.184731,16.370756 95.389481,15.381866 108.549828,20.159479 
	C111.807976,21.342285 114.953979,22.834007 118.518250,24.255360 
	C123.729118,28.107664 128.573273,31.888334 133.711365,35.825443 
	C134.188034,36.266018 134.370773,36.550148 134.940094,37.163292 
	C135.872894,38.023464 136.419083,38.554626 136.965286,39.085785 
	C138.725922,41.623108 140.486542,44.160431 142.514252,46.885605 
	C147.252060,55.102364 150.539627,63.468639 151.573685,72.745361 
	C152.899475,84.638847 151.283676,95.905296 145.630188,107.148911 
	C145.203445,108.114326 145.060059,108.543770 144.916687,108.973221 
	C144.596710,109.392746 144.276718,109.812279 143.926636,110.500076 
	C135.026260,124.693390 123.228966,135.002686 107.338890,140.176758 
	C104.187065,141.203049 100.923447,141.886002 97.097946,142.825409 
	C96.326584,142.993546 96.168655,143.063553 96.010719,143.133575 
	C90.960953,143.058395 85.911179,142.983215 80.441940,142.933899 
M103.757721,89.175713 
	C103.757721,89.175713 103.671272,89.158577 103.712067,89.778275 
	C104.075623,90.255646 104.439178,90.733017 104.831306,91.125534 
	C104.831306,91.125534 104.744507,91.103561 104.779739,91.722702 
	C105.139603,92.205414 105.499466,92.688126 105.904762,93.080826 
	C105.904762,93.080826 105.813072,93.038864 105.887482,93.755142 
	C106.202080,94.101158 106.516685,94.447166 106.765938,94.832481 
	C106.765938,94.832481 106.801331,94.900032 106.910316,95.645714 
	C107.236290,96.010231 107.562256,96.374756 107.772430,96.819450 
	C107.772430,96.819450 107.848198,96.938179 107.872787,97.577408 
	C108.232521,98.085754 108.592262,98.594093 109.028038,99.737740 
	C109.677773,100.828583 110.327507,101.919426 111.043213,103.726692 
	C112.402908,106.382706 113.779892,109.030037 115.118652,111.696556 
	C117.787842,117.012970 122.404778,119.121681 128.748779,117.882584 
	C128.557709,109.623695 123.439102,103.508453 119.407349,96.117859 
	C117.234444,92.075111 115.061539,88.032372 113.774147,83.637924 
	C117.571159,83.113274 121.368179,82.588623 125.599419,82.972870 
	C129.112640,89.285591 129.642624,89.464828 135.705505,86.021507 
	C138.416931,84.676186 141.128342,83.330864 144.513077,81.651459 
	C140.829437,79.780334 137.941818,78.313545 134.532745,76.291252 
	C132.231293,75.883423 127.955238,74.978210 127.914520,75.139839 
	C126.581902,80.430305 122.046707,78.120651 118.125412,78.925949 
	C115.721146,78.935585 113.316879,78.945221 110.624397,78.517860 
	C110.331085,78.334297 110.037781,78.150734 109.697655,77.514938 
	C109.578812,77.206413 109.358734,77.013229 108.993919,76.356781 
	C108.666161,75.897171 108.338402,75.437569 107.989784,74.410271 
	C107.656570,73.974174 107.323349,73.538086 107.010880,73.021645 
	C107.010880,73.021645 106.930519,73.000961 106.827858,72.308723 
	C104.853905,68.877701 102.879951,65.446671 100.809624,61.321869 
	C99.066223,58.225769 97.322815,55.129669 95.548355,51.552742 
	C95.243530,51.191822 94.938713,50.830898 94.619904,50.457153 
	C94.619904,50.457153 94.626083,50.437675 94.538963,49.724598 
	C92.961136,46.839127 91.383308,43.953655 89.700645,40.392666 
	C88.351128,37.995201 87.001610,35.597740 85.100487,32.220333 
	C82.619209,36.280548 80.606544,39.573959 78.107178,43.280952 
	C78.105217,44.496929 77.598091,46.109749 78.188042,46.860725 
	C80.854874,50.255421 79.655289,53.194286 77.963875,56.495392 
	C74.901863,62.471478 72.181877,68.622810 69.251709,74.844048 
	C79.501228,76.366852 79.871796,76.175972 83.759712,67.616135 
	C83.960823,67.173363 84.010742,66.661911 84.109772,66.160934 
	C84.109772,66.160934 84.121140,66.150993 84.655022,65.730637 
	C84.893776,65.101562 85.132530,64.472488 85.081696,63.492935 
	C85.081696,63.492935 85.383316,63.835396 85.919632,63.388271 
	C86.617439,62.479870 87.315247,61.571468 88.249237,61.043808 
	C88.249237,61.043808 88.688080,61.134109 88.814484,61.850330 
	C91.161232,66.061523 93.507980,70.272720 95.839409,74.812859 
	C95.839409,74.812859 96.117287,74.989548 96.200127,75.631088 
	C96.971359,76.880547 97.742584,78.130005 98.960876,79.045731 
	C98.810776,79.158302 98.660683,79.270882 98.606346,80.029396 
	C99.273468,81.127281 99.940590,82.225166 100.798386,83.124084 
	C100.798386,83.124084 100.578331,83.289978 100.663368,83.946144 
	C101.341164,85.055542 102.018951,86.164940 102.727463,87.193306 
	C102.727463,87.193306 102.643196,87.173073 102.672806,87.795967 
	C103.025543,88.283882 103.378281,88.771797 103.757721,89.175713 
M93.393707,79.368622 
	C90.917664,79.312271 88.441628,79.255913 85.077469,79.078484 
	C82.392609,79.138802 79.707748,79.199112 76.118156,79.021095 
	C71.756088,79.054359 67.394012,79.087631 62.502861,78.944427 
	C62.325180,78.999146 62.147503,79.053864 61.119343,78.972260 
	C58.800434,78.551659 55.168324,78.906494 54.384651,77.579346 
	C50.512062,71.021126 44.372337,71.675507 37.928314,70.843246 
	C39.308945,74.427368 41.303146,77.320419 41.280937,80.197914 
	C41.259331,82.997963 39.172508,85.782082 37.711037,89.238914 
	C44.173462,88.651787 50.309521,90.193665 54.935520,83.818573 
	C68.230843,83.818573 81.526161,83.818573 95.912109,83.818573 
	C94.690933,81.683250 94.233322,80.883080 93.393707,79.368622 
M55.438068,102.037819 
	C55.218872,102.318108 55.153404,102.630585 54.930809,103.281357 
	C54.930809,103.281357 54.901081,103.716621 54.454323,103.992157 
	C54.373035,104.321014 54.291748,104.649879 53.686798,105.529434 
	C52.103306,109.000023 50.477478,112.452301 48.964119,115.953209 
	C48.551781,116.907097 47.927326,118.455467 48.341785,118.964737 
	C50.409439,121.505394 52.790802,123.790749 55.431232,126.552322 
	C59.522892,117.188362 63.361271,108.404053 67.758583,99.134331 
	C69.302528,95.705978 70.846481,92.277618 72.434608,88.751167 
	C63.180599,86.686028 62.407562,87.013596 58.870270,94.556168 
	C57.750618,96.943596 56.825436,99.422226 55.886017,101.862381 
	C55.886017,101.862381 55.865173,101.790512 55.438068,102.037819 
z"/>
<path fill="#6E49DF" opacity="1.000000" stroke="none" 
	d="
M96.130722,143.214783 
	C96.168655,143.063553 96.326584,142.993546 96.740112,142.965912 
	C96.808205,143.275085 96.559883,143.371002 96.130722,143.214783 
z"/>
<path fill="#7A47E7" opacity="1.000000" stroke="none" 
	d="
M145.123062,108.719749 
	C145.060059,108.543770 145.203445,108.114326 145.635498,107.492462 
	C145.725922,107.688782 145.527679,108.077530 145.123062,108.719749 
z"/>
<path fill="#6043ED" opacity="1.000000" stroke="none" 
	d="
M44.054909,36.242325 
	C44.063412,36.393398 43.837212,36.705956 43.342598,37.139050 
	C43.322861,36.974327 43.571537,36.689064 44.054909,36.242325 
z"/>
<path fill="#6853EB" opacity="1.000000" stroke="none" 
	d="
M136.886642,38.792068 
	C136.419083,38.554626 135.872894,38.023464 135.190292,37.238060 
	C135.638596,37.488659 136.223297,37.993507 136.886642,38.792068 
z"/>
<path fill="#674FE7" opacity="1.000000" stroke="none" 
	d="
M35.140659,114.104858 
	C35.474323,114.271996 35.879280,114.753510 36.362747,115.547974 
	C36.031487,115.380356 35.621719,114.899796 35.140659,114.104858 
z"/>
<path fill="#674FE7" opacity="1.000000" stroke="none" 
	d="
M36.303825,115.868698 
	C36.501019,115.874023 36.799297,116.141533 37.082260,116.718193 
	C36.846264,116.728523 36.625587,116.429703 36.303825,115.868698 
z"/>
<path fill="#6657EB" opacity="1.000000" stroke="none" 
	d="
M68.299339,20.157196 
	C68.028435,20.456612 67.391747,20.796646 66.384850,21.164198 
	C66.654274,20.860416 67.293922,20.529116 68.299339,20.157196 
z"/>
<path fill="#6657EB" opacity="1.000000" stroke="none" 
	d="
M65.879166,21.149277 
	C65.659569,21.410278 65.138962,21.705927 64.310043,22.007610 
	C64.527206,21.737070 65.052689,21.460497 65.879166,21.149277 
z"/>
<path fill="#33BDE4" opacity="1.000000" stroke="none" 
	d="
M89.805481,41.068184 
	C91.383308,43.953655 92.961136,46.839127 94.163132,50.202644 
	C92.032349,51.164310 90.236649,51.535282 88.530083,52.152645 
	C83.392464,54.011238 80.779762,62.451679 84.131058,66.182434 
	C84.010742,66.661911 83.960823,67.173363 83.759712,67.616135 
	C79.871796,76.175972 79.501228,76.366852 69.251709,74.844048 
	C72.181877,68.622810 74.901863,62.471478 77.963875,56.495392 
	C79.655289,53.194286 80.854874,50.255421 78.188042,46.860725 
	C77.598091,46.109749 78.105217,44.496929 78.782722,43.087341 
	C81.190948,42.682617 82.936333,42.543419 84.652756,42.240253 
	C86.385292,41.934242 88.089088,41.465588 89.805481,41.068184 
z"/>
<path fill="#23D6E0" opacity="1.000000" stroke="none" 
	d="
M106.801331,94.900032 
	C106.801331,94.900032 106.765938,94.832481 106.685684,94.488266 
	C106.341316,93.775658 106.077194,93.407265 105.813072,93.038864 
	C105.813072,93.038864 105.904762,93.080826 105.847481,92.820709 
	C105.441635,92.074913 105.093071,91.589241 104.744507,91.103561 
	C104.744507,91.103561 104.831306,91.125534 104.789246,90.860336 
	C104.388550,90.116280 104.029907,89.637428 103.671272,89.158577 
	C103.671272,89.158577 103.757721,89.175713 103.730896,88.905746 
	C103.350449,88.148209 102.996826,87.660637 102.643196,87.173073 
	C102.643196,87.173073 102.727463,87.193306 102.762390,86.866959 
	C102.057655,85.457062 101.317993,84.373520 100.578331,83.289978 
	C100.578331,83.289978 100.798386,83.124084 100.771042,82.854553 
	C99.999329,81.517830 99.254967,80.450638 98.510597,79.383453 
	C98.660683,79.270882 98.810776,79.158302 98.824631,78.852234 
	C97.831360,77.435677 96.974319,76.212608 96.117287,74.989548 
	C96.117287,74.989548 95.839409,74.812859 95.883636,74.229965 
	C96.136124,69.601295 98.099838,67.821548 102.372772,68.553444 
	C102.496811,70.283264 102.604568,71.786102 102.722321,73.428215 
	C104.359138,73.262032 105.644829,73.131493 106.930519,73.000961 
	C106.930519,73.000961 107.010880,73.021645 107.049881,73.332047 
	C107.396141,74.087624 107.703392,74.532799 108.010635,74.977966 
	C108.338402,75.437569 108.666161,75.897171 109.096695,76.840942 
	C109.337395,77.576248 109.519058,77.790276 109.744469,77.967171 
	C110.037781,78.150734 110.331085,78.334297 110.807014,79.086327 
	C111.622635,81.099731 112.255638,82.544678 112.888641,83.989624 
	C115.061539,88.032372 117.234444,92.075111 119.095505,96.523880 
	C116.181519,98.956696 113.579384,100.983482 110.977249,103.010269 
	C110.327507,101.919426 109.677773,100.828583 108.940903,99.112350 
	C108.518585,97.970695 108.183395,97.454437 107.848198,96.938179 
	C107.848198,96.938179 107.772430,96.819450 107.699242,96.444481 
	C107.351143,95.679688 107.076241,95.289856 106.801331,94.900032 
z"/>
<path fill="#40A7E3" opacity="1.000000" stroke="none" 
	d="
M54.009716,83.958763 
	C50.309521,90.193665 44.173462,88.651787 37.711037,89.238914 
	C39.172508,85.782082 41.259331,82.997963 41.280937,80.197914 
	C41.303146,77.320419 39.308945,74.427368 37.928314,70.843246 
	C44.372337,71.675507 50.512062,71.021126 54.384651,77.579346 
	C55.168324,78.906494 58.800434,78.551659 61.654922,79.156410 
	C62.190498,79.340561 62.652828,79.386475 62.652828,79.386475 
	C62.652828,79.386475 63.031944,79.120903 63.031944,79.120903 
	C67.394012,79.087631 71.756088,79.054359 76.505638,79.512894 
	C75.384346,80.660202 73.902634,81.794083 72.361702,81.881294 
	C67.787216,82.140160 63.180161,81.824203 58.605827,82.084419 
	C57.043308,82.173302 55.540051,83.304047 54.009716,83.958763 
z"/>
<path fill="#31C5E7" opacity="1.000000" stroke="none" 
	d="
M67.199646,99.619736 
	C63.361271,108.404053 59.522892,117.188362 55.431232,126.552322 
	C52.790802,123.790749 50.409439,121.505394 48.341785,118.964737 
	C47.927326,118.455467 48.551781,116.907097 48.964119,115.953209 
	C50.477478,112.452301 52.103306,109.000023 54.109997,105.071091 
	C54.725361,104.342590 54.847988,104.043877 54.901081,103.716621 
	C54.901081,103.716621 54.930809,103.281357 55.238850,102.959229 
	C55.725414,102.382133 55.831509,102.099937 55.865173,101.790512 
	C55.865173,101.790512 55.886017,101.862381 56.230408,101.866570 
	C58.394131,100.293915 60.249657,98.756264 62.017395,97.123558 
	C62.889656,96.317940 63.599827,95.336830 64.383339,94.435120 
	C65.191345,95.353928 66.134346,96.190987 66.758301,97.221260 
	C67.152039,97.871391 67.068886,98.810341 67.199646,99.619736 
z"/>
<path fill="#21D8DB" opacity="1.000000" stroke="none" 
	d="
M111.010231,103.368484 
	C113.579384,100.983482 116.181519,98.956696 119.182549,96.887283 
	C123.439102,103.508453 128.557709,109.623695 128.742401,117.885361 
	C122.404778,119.121681 117.787842,117.012970 115.118652,111.696556 
	C113.779892,109.030037 112.402908,106.382706 111.010231,103.368484 
z"/>
<path fill="#2CC8E5" opacity="1.000000" stroke="none" 
	d="
M84.120415,66.171684 
	C80.779762,62.451679 83.392464,54.011238 88.530083,52.152645 
	C90.236649,51.535282 92.032349,51.164310 94.206688,50.559185 
	C94.626083,50.437675 94.619904,50.457153 94.617310,50.714584 
	C94.936279,51.325863 95.257843,51.679714 95.579407,52.033569 
	C97.322815,55.129669 99.066223,58.225769 100.451370,61.675362 
	C96.291435,61.730610 92.489754,61.432358 88.688080,61.134109 
	C88.688080,61.134109 88.249237,61.043808 88.002365,60.614906 
	C86.964760,61.402466 86.174034,62.618931 85.383316,63.835396 
	C85.383316,63.835396 85.081696,63.492935 84.974632,63.900433 
	C84.618759,64.922287 84.369949,65.536636 84.121140,66.150993 
	C84.121140,66.150993 84.109772,66.160934 84.120415,66.171684 
z"/>
<path fill="#479BDC" opacity="1.000000" stroke="none" 
	d="
M119.003815,79.109177 
	C122.046707,78.120651 126.581902,80.430305 127.914520,75.139839 
	C127.955238,74.978210 132.231293,75.883423 134.787384,77.034073 
	C135.024597,80.567490 135.007187,83.358086 134.989777,86.148682 
	C129.642624,89.464828 129.112640,89.285591 125.228363,82.525871 
	C122.906136,81.088974 120.954979,80.099075 119.003815,79.109177 
z"/>
<path fill="#36BADE" opacity="1.000000" stroke="none" 
	d="
M67.479111,99.377029 
	C67.068886,98.810341 67.152039,97.871391 66.758301,97.221260 
	C66.134346,96.190987 65.191345,95.353928 64.383339,94.435120 
	C63.599827,95.336830 62.889656,96.317940 62.017395,97.123558 
	C60.249657,98.756264 58.394131,100.293915 56.193024,101.864937 
	C56.825436,99.422226 57.750618,96.943596 58.870270,94.556168 
	C62.407562,87.013596 63.180599,86.686028 72.434608,88.751167 
	C70.846481,92.277618 69.302528,95.705978 67.479111,99.377029 
z"/>
<path fill="#40C0F1" opacity="1.000000" stroke="none" 
	d="
M54.472618,83.888672 
	C55.540051,83.304047 57.043308,82.173302 58.605827,82.084419 
	C63.180161,81.824203 67.787216,82.140160 72.361702,81.881294 
	C73.902634,81.794083 75.384346,80.660202 76.958008,79.632065 
	C79.707748,79.199112 82.392609,79.138802 85.852791,79.341034 
	C89.010643,79.763351 91.393173,79.923126 93.775703,80.082901 
	C94.233322,80.883080 94.690933,81.683250 95.912109,83.818573 
	C81.526161,83.818573 68.230843,83.818573 54.472618,83.888672 
z"/>
<path fill="#27CCDD" opacity="1.000000" stroke="none" 
	d="
M88.751282,61.492218 
	C92.489754,61.432358 96.291435,61.730610 100.499557,62.022247 
	C102.879951,65.446671 104.853905,68.877701 106.879189,72.654846 
	C105.644829,73.131493 104.359138,73.262032 102.722321,73.428215 
	C102.604568,71.786102 102.496811,70.283264 102.372772,68.553444 
	C98.099838,67.821548 96.136124,69.601295 95.891289,74.065491 
	C93.507980,70.272720 91.161232,66.061523 88.751282,61.492218 
z"/>
<path fill="#3BA4D9" opacity="1.000000" stroke="none" 
	d="
M89.753067,40.730427 
	C88.089088,41.465588 86.385292,41.934242 84.652756,42.240253 
	C82.936333,42.543419 81.190948,42.682617 79.026077,42.880550 
	C80.606544,39.573959 82.619209,36.280548 85.100487,32.220333 
	C87.001610,35.597740 88.351128,37.995201 89.753067,40.730427 
z"/>
<path fill="#37C5E4" opacity="1.000000" stroke="none" 
	d="
M118.564613,79.017563 
	C120.954979,80.099075 122.906136,81.088974 125.011246,82.071426 
	C121.368179,82.588623 117.571159,83.113274 113.331390,83.813774 
	C112.255638,82.544678 111.622635,81.099731 110.951126,79.304825 
	C113.316879,78.945221 115.721146,78.935585 118.564613,79.017563 
z"/>
<path fill="#4F81D2" opacity="1.000000" stroke="none" 
	d="
M135.347656,86.085098 
	C135.007187,83.358086 135.024597,80.567490 135.048096,77.311829 
	C137.941818,78.313545 140.829437,79.780334 144.513077,81.651459 
	C141.128342,83.330864 138.416931,84.676186 135.347656,86.085098 
z"/>
<path fill="#27CCDD" opacity="1.000000" stroke="none" 
	d="
M96.158707,75.310318 
	C96.974319,76.212608 97.831360,77.435677 98.601105,79.019104 
	C97.742584,78.130005 96.971359,76.880547 96.158707,75.310318 
z"/>
<path fill="#33BDE4" opacity="1.000000" stroke="none" 
	d="
M85.651474,63.611832 
	C86.174034,62.618931 86.964760,61.402466 87.884270,60.424534 
	C87.315247,61.571468 86.617439,62.479870 85.651474,63.611832 
z"/>
<path fill="#3D94B8" opacity="1.000000" stroke="none" 
	d="
M93.584702,79.725761 
	C91.393173,79.923126 89.010643,79.763351 86.296844,79.401566 
	C88.441628,79.255913 90.917664,79.312271 93.584702,79.725761 
z"/>
<path fill="#27CCDD" opacity="1.000000" stroke="none" 
	d="
M98.558472,79.706421 
	C99.254967,80.450638 99.999329,81.517830 100.675705,82.954033 
	C99.940590,82.225166 99.273468,81.127281 98.558472,79.706421 
z"/>
<path fill="#27CCDD" opacity="1.000000" stroke="none" 
	d="
M100.620850,83.618057 
	C101.317993,84.373520 102.057655,85.457062 102.747040,86.907471 
	C102.018951,86.164940 101.341164,85.055542 100.620850,83.618057 
z"/>
<path fill="#33BDE4" opacity="1.000000" stroke="none" 
	d="
M84.388077,65.940811 
	C84.369949,65.536636 84.618759,64.922287 85.119431,64.075668 
	C85.132530,64.472488 84.893776,65.101562 84.388077,65.940811 
z"/>
<path fill="#27CCDD" opacity="1.000000" stroke="none" 
	d="
M107.860489,97.257797 
	C108.183395,97.454437 108.518585,97.970695 108.902885,98.794693 
	C108.592262,98.594093 108.232521,98.085754 107.860489,97.257797 
z"/>
<path fill="#27CCDD" opacity="1.000000" stroke="none" 
	d="
M104.762123,91.413132 
	C105.093071,91.589241 105.441635,92.074913 105.824760,92.865715 
	C105.499466,92.688126 105.139603,92.205414 104.762123,91.413132 
z"/>
<path fill="#27CCDD" opacity="1.000000" stroke="none" 
	d="
M103.691666,89.468430 
	C104.029907,89.637428 104.388550,90.116280 104.774963,90.902756 
	C104.439178,90.733017 104.075623,90.255646 103.691666,89.468430 
z"/>
<path fill="#27CCDD" opacity="1.000000" stroke="none" 
	d="
M102.658005,87.484520 
	C102.996826,87.660637 103.350449,88.148209 103.717545,88.947739 
	C103.378281,88.771797 103.025543,88.283882 102.658005,87.484520 
z"/>
<path fill="#33BDE4" opacity="1.000000" stroke="none" 
	d="
M95.563881,51.793152 
	C95.257843,51.679714 94.936279,51.325863 94.624298,50.720993 
	C94.938713,50.830898 95.243530,51.191822 95.563881,51.793152 
z"/>
<path fill="#27CCDD" opacity="1.000000" stroke="none" 
	d="
M108.000214,74.694122 
	C107.703392,74.532799 107.396141,74.087624 107.039513,73.372223 
	C107.323349,73.538086 107.656570,73.974174 108.000214,74.694122 
z"/>
<path fill="#36BADE" opacity="1.000000" stroke="none" 
	d="
M54.677704,103.854385 
	C54.847988,104.043877 54.725361,104.342590 54.371826,104.795746 
	C54.291748,104.649879 54.373035,104.321014 54.677704,103.854385 
z"/>
<path fill="#36BADE" opacity="1.000000" stroke="none" 
	d="
M55.651619,101.914169 
	C55.831509,102.099937 55.725414,102.382133 55.394279,102.806175 
	C55.153404,102.630585 55.218872,102.318108 55.651619,101.914169 
z"/>
<path fill="#27CCDD" opacity="1.000000" stroke="none" 
	d="
M106.855820,95.272873 
	C107.076241,95.289856 107.351143,95.679688 107.757141,96.404388 
	C107.562256,96.374756 107.236290,96.010231 106.855820,95.272873 
z"/>
<path fill="#27CCDD" opacity="1.000000" stroke="none" 
	d="
M105.850281,93.397003 
	C106.077194,93.407265 106.341316,93.775658 106.718361,94.468620 
	C106.516685,94.447166 106.202080,94.101158 105.850281,93.397003 
z"/>
<path fill="#3D94B8" opacity="1.000000" stroke="none" 
	d="
M62.767403,79.032669 
	C63.031944,79.120903 62.652828,79.386475 62.652828,79.386475 
	C62.652828,79.386475 62.190498,79.340561 62.080162,79.224564 
	C62.147503,79.053864 62.325180,78.999146 62.767403,79.032669 
z"/>
<path fill="#27CCDD" opacity="1.000000" stroke="none" 
	d="
M109.721062,77.741058 
	C109.519058,77.790276 109.337395,77.576248 109.118454,77.130241 
	C109.358734,77.013229 109.578812,77.206413 109.721062,77.741058 
z"/>
</svg>